<?xml version="1.0" standalone="no"?>
<!DOCTYPE svg PUBLIC "-//W3C//DTD SVG 20010904//EN"
 "http://www.w3.org/TR/2001/REC-SVG-20010904/DTD/svg10.dtd">
<svg version="1.0" xmlns="http://www.w3.org/2000/svg"
 width="700.000000pt" height="700.000000pt" viewBox="0 0 700.000000 700.000000"
 preserveAspectRatio="xMidYMid meet">
<metadata>
Created by potrace 1.16, written by Peter Selinger 2001-2019
</metadata>
<g transform="translate(0.000000,700.000000) scale(0.140000,-0.186667)"
fill="#000000" stroke="none">
<path d="M3563 2950 c-93 -10 -170 -46 -211 -98 -41 -51 -107 -190 -165 -347
-25 -66 -48 -128 -52 -137 -4 -10 -3 -18 2 -18 4 0 18 26 30 58 166 434 198
482 338 516 81 19 155 27 155 17 0 -4 -28 -11 -63 -14 -137 -13 -223 -70 -282
-187 -32 -64 -91 -207 -115 -281 -10 -31 -24 -66 -31 -77 -18 -29 -12 -32 46
-21 62 12 79 6 72 -23 -8 -28 18 -58 49 -58 13 0 32 12 46 29 20 26 33 31 107
41 103 14 161 36 161 60 0 15 -6 17 -37 14 -21 -3 -78 -9 -128 -14 -49 -5
-105 -12 -122 -16 -29 -5 -34 -3 -43 21 -8 22 -6 35 17 76 17 32 35 52 50 55
40 10 122 -8 226 -51 13 -5 16 -3 12 7 -3 8 -9 43 -13 78 -7 63 -8 65 -43 75
-20 5 -53 23 -74 40 -30 22 -52 30 -97 33 -38 3 -58 9 -58 17 0 21 62 76 108
97 43 19 43 19 79 -2 32 -19 35 -19 29 -3 -3 10 5 5 19 -12 34 -40 63 -136 83
-275 l17 -116 35 8 c33 6 303 42 400 52 140 15 277 29 287 29 21 1 -26 57
-162 193 -115 115 -137 133 -192 153 -35 13 -63 28 -63 33 0 5 -10 6 -21 3
-13 -5 -19 -3 -15 3 3 5 -4 12 -17 16 -33 9 -45 6 -22 -5 17 -8 16 -9 -5 -3
-14 3 -71 8 -127 11 -57 3 -103 10 -103 15 0 9 42 7 175 -7 33 -4 35 -3 14 4
-41 13 -216 20 -296 11z m271 -127 c6 -11 10 -12 16 -3 18 28 149 -45 150 -84
1 -6 14 -27 30 -46 17 -19 30 -37 30 -41 0 -4 -55 -6 -122 -4 l-121 3 -34 89
c-36 95 -36 94 -34 107 2 14 75 -4 85 -21z"/>
<path d="M2119 2906 c-2 -2 -50 -6 -106 -9 -56 -3 -112 -11 -125 -18 -51 -27
-265 -175 -288 -199 -3 -3 -52 -44 -110 -92 -58 -47 -120 -102 -138 -121 -32
-33 -35 -34 -60 -21 -34 18 -52 18 -52 0 0 -40 26 -43 520 -49 261 -4 624 -13
805 -21 510 -23 458 -24 472 5 7 13 39 87 72 164 60 142 118 257 153 308 11
16 19 30 17 32 -18 16 -1143 37 -1160 21z m1060 -140 c-19 -42 -40 -75 -46
-76 -7 0 -13 4 -13 8 0 5 -25 36 -55 69 -30 34 -55 64 -55 68 0 3 43 5 95 3
81 -3 94 -1 90 12 -5 12 -4 12 6 3 10 -10 5 -28 -22 -87z m-1240 57 c15 -32
13 -33 -130 -136 -48 -34 -104 -75 -125 -92 -77 -59 -179 -140 -184 -146 -3
-3 -24 -8 -47 -12 -30 -3 -43 -1 -43 7 0 32 465 406 505 406 6 0 17 -12 24
-27z m271 13 c0 -7 -7 -19 -15 -26 -15 -12 -95 -153 -127 -222 -13 -29 -23
-38 -42 -38 -14 0 -43 -6 -63 -14 -21 -8 -72 -20 -113 -27 -67 -12 -71 -14
-40 -19 31 -5 33 -6 11 -12 -13 -4 -20 -11 -16 -17 3 -7 -3 -11 -17 -12 -179
-7 -238 -8 -238 -5 0 9 178 155 265 218 183 132 395 225 395 174z m248 -121
c2 -2 -4 -15 -13 -29 -10 -15 -20 -55 -23 -92 -2 -36 -10 -67 -16 -69 -6 -2
-39 -6 -74 -8 -74 -6 -73 -14 -10 124 l40 86 46 -5 c26 -2 48 -6 50 -7z"/>
<path d="M4523 2124 c-39 -20 -95 -99 -123 -175 -24 -65 -70 -243 -70 -270 0
-28 -31 -113 -44 -121 -21 -14 -145 -48 -442 -122 -624 -156 -722 -175 -712
-144 2 6 15 15 29 19 72 20 114 31 214 54 218 50 813 197 878 217 20 6 37 15
37 20 0 12 -34 10 -47 -3 -6 -6 -17 -8 -24 -4 -9 6 -7 11 6 22 17 12 16 13
-13 13 -21 0 -32 -5 -32 -14 0 -19 -54 -37 -93 -30 -24 4 -28 3 -17 -5 12 -8
8 -11 -18 -11 -18 0 -44 -7 -58 -16 -13 -9 -27 -14 -31 -11 -3 4 5 11 18 16
20 8 18 9 -17 7 -23 -2 -45 -5 -50 -8 -17 -10 -119 -37 -219 -59 -77 -17 -95
-24 -80 -31 16 -7 15 -7 -7 -3 -14 3 -98 -13 -185 -34 -87 -22 -173 -42 -191
-46 -18 -4 -39 -13 -47 -22 -9 -8 -15 -10 -15 -3 0 6 -5 8 -10 5 -6 -4 -8 -11
-5 -16 4 -5 2 -9 -3 -9 -12 0 -25 47 -17 60 3 5 -5 56 -18 112 -14 57 -30 132
-36 167 -19 101 -68 185 -129 223 -146 90 -303 -25 -397 -291 -22 -63 -19 -65
24 -22 99 99 237 115 340 40 22 -16 47 -41 54 -56 13 -25 12 -30 -6 -48 -20
-20 -20 -20 -8 2 15 29 14 39 -5 57 -20 21 -58 20 -79 0 -14 -15 -15 -13 -9
25 5 34 4 41 -9 41 -10 0 -14 -6 -11 -14 3 -8 0 -17 -7 -21 -9 -6 -10 -1 -7
19 4 22 2 26 -18 26 -13 0 -27 1 -31 2 -18 3 -47 -54 -45 -90 1 -33 0 -32 -14
17 -17 64 -18 65 -39 57 -15 -5 -15 -7 -1 -21 16 -16 39 -85 31 -93 -2 -3 -13
16 -24 40 -24 56 -34 63 -64 44 -16 -11 -24 -27 -25 -52 -2 -30 5 -45 43 -90
32 -37 45 -61 43 -76 -3 -20 -7 -17 -30 22 -34 57 -103 124 -117 116 -15 -10
-14 -26 2 -26 8 0 24 -11 37 -25 26 -27 17 -33 -14 -10 -33 25 -44 18 -52 -31
-9 -60 4 -72 84 -76 46 -2 69 -8 87 -24 14 -12 25 -25 25 -29 0 -4 -6 -3 -13
3 -7 6 -57 13 -112 17 -72 5 -96 3 -85 -4 8 -6 31 -11 50 -12 l35 -1 -47 -15
c-45 -13 -48 -16 -48 -49 0 -28 5 -36 26 -44 29 -11 33 -10 91 37 35 28 46 32
62 23 17 -8 22 -6 32 12 8 14 14 18 17 10 2 -6 15 -12 29 -12 18 0 28 8 36 30
8 21 18 30 32 29 15 -1 16 -2 3 -6 -34 -9 -30 -36 14 -80 23 -24 50 -46 60
-49 10 -3 16 -9 13 -13 -2 -5 4 -16 15 -26 11 -10 20 -22 20 -28 0 -5 -35 25
-77 66 -42 42 -78 75 -80 73 -6 -6 19 -150 28 -162 13 -16 -1 -80 -22 -103
-11 -11 -19 -25 -19 -32 0 -16 -89 -5 -130 16 -44 23 -32 28 20 10 63 -22 78
-19 101 20 12 19 25 33 29 30 14 -9 16 29 3 75 l-13 45 5 -55 c2 -30 2 -48 -1
-40 -3 8 -8 22 -12 30 -3 8 -10 33 -16 55 -10 34 -9 42 7 55 16 13 16 17 3 35
-17 23 -32 14 -40 -25 -3 -14 -10 -41 -15 -60 -6 -19 -11 -54 -11 -77 0 -30
-4 -43 -14 -43 -8 0 -17 6 -19 13 -4 7 -6 6 -6 -4 -1 -26 -68 -35 -93 -12 -29
26 -71 101 -65 115 4 8 6 7 6 -4 2 -29 21 -31 56 -3 41 31 45 25 10 -17 -25
-29 -35 -65 -15 -53 6 3 10 -1 10 -10 0 -14 6 -16 28 -11 36 9 46 24 62 93 7
32 18 64 23 71 18 23 -10 12 -69 -27 l-59 -40 -33 21 c-30 19 -34 19 -45 4
-19 -26 -137 -45 -347 -57 l-195 -11 -155 30 c-85 17 -209 42 -275 56 -87 18
-194 29 -385 41 -146 9 -346 22 -446 30 -188 14 -220 11 -404 -33 l-35 -9 40
-11 c22 -7 52 -12 67 -12 21 0 34 -9 51 -37 32 -50 104 -116 159 -145 l43 -22
-93 -11 c-66 -7 -90 -13 -83 -21 8 -7 -11 -17 -64 -33 -82 -24 -95 -35 -65
-51 92 -50 272 -74 894 -121 241 -18 336 -20 710 -16 470 5 505 8 856 76 58
11 165 27 239 36 74 8 136 17 139 19 2 2 -7 7 -20 12 -20 6 -16 9 27 20 149
39 382 85 470 93 55 4 85 9 66 10 -63 2 -26 14 189 61 47 10 158 37 247 59 89
23 215 52 280 66 218 47 327 77 375 102 73 38 71 39 -89 59 -29 4 -53 8 -53
10 0 32 40 132 61 154 18 17 30 42 34 72 5 30 15 53 30 67 13 11 29 39 35 63
6 24 14 51 17 62 5 18 4 18 -18 3 -12 -9 -28 -29 -34 -44 -10 -24 -13 -11 -27
104 -23 185 -62 265 -133 278 -18 3 -43 -1 -62 -11z"/>
<path d="M2265 1979 l-110 -18 98 6 c86 5 97 4 97 -11 0 -27 -58 -134 -79
-146 -31 -16 -35 -12 -16 18 13 19 7 16 -21 -13 -36 -38 -39 -39 -42 -17 -2
16 -9 21 -20 18 -42 -11 -157 -17 -147 -8 6 6 48 14 94 19 l84 8 24 43 c14 24
22 46 20 48 -6 7 -207 -11 -411 -36 -88 -11 -167 -20 -175 -20 -9 0 4 -9 28
-21 41 -18 57 -19 183 -13 76 4 138 4 138 0 0 -14 -41 -66 -51 -66 -6 0 -1 14
11 30 12 17 18 30 13 30 -4 0 -16 -14 -25 -30 -17 -29 -50 -42 -46 -17 2 9
-23 11 -109 8 l-113 -3 -35 31 c-20 17 -32 31 -28 32 4 0 -3 5 -17 11 -24 10
-24 10 -5 19 18 7 410 63 510 72 22 2 6 4 -35 5 -43 1 -194 -15 -350 -37 -254
-36 -284 -39 -390 -31 -304 22 -807 36 -775 21 20 -9 20 -10 -1 -10 -12 -1
-47 -29 -84 -67 l-63 -65 6 -82 c7 -81 44 -244 73 -316 8 -20 23 -42 33 -48
11 -7 75 -17 143 -22 228 -20 663 -42 694 -36 36 6 43 21 94 199 17 59 35 116
40 125 16 30 30 82 20 76 -12 -7 -12 13 0 40 5 12 9 14 9 6 1 -8 3 -12 6 -9 3
2 -1 22 -9 44 -8 21 -15 32 -15 24 -1 -8 -15 8 -31 37 -16 28 -37 53 -47 56
-10 2 11 7 47 11 l65 8 51 -51 51 -51 110 0 c60 0 113 -3 116 -7 4 -3 1 -13
-5 -21 -11 -13 6 -14 132 -7 266 13 292 20 331 96 31 61 59 143 51 149 -4 4
-56 -2 -117 -11z m-1345 -359 c107 -5 220 -10 250 -11 l55 -2 -45 -8 c-25 -4
-64 -5 -87 -2 -24 3 -59 2 -78 -1 -33 -7 -35 -9 -35 -46 0 -22 -4 -40 -10 -40
-5 0 -10 11 -10 24 0 13 -3 31 -6 40 -4 11 2 19 17 25 18 7 3 10 -61 10 -47 1
-116 3 -155 6 -64 4 -65 3 -19 -4 58 -10 74 -17 74 -34 0 -9 -3 -9 -8 1 -5 7
-40 15 -85 18 -75 5 -77 5 -78 -18 -1 -18 -2 -19 -6 -5 -3 10 0 24 6 31 11 13
5 26 -11 26 -13 0 -9 -75 5 -89 10 -11 10 -13 0 -7 -9 5 -13 -1 -13 -18 0 -23
4 -25 75 -31 41 -4 104 -5 140 -3 35 2 59 0 52 -4 -6 -4 29 -8 78 -9 50 0 132
-3 183 -5 l92 -5 -5 71 c-3 44 -1 70 5 70 14 0 13 -147 0 -152 -11 -3 -407 16
-547 27 l-81 7 -4 46 c-1 26 -2 62 0 80 l3 33 57 -6 c31 -3 145 -10 252 -15z"/>
<path d="M3926 1828 c-3 -18 -7 -49 -8 -68 l-3 -34 -145 -38 c-80 -21 -154
-42 -165 -47 -11 -6 -36 -13 -55 -16 -19 -4 -54 -13 -78 -21 -23 -8 -59 -15
-80 -15 -20 -1 -29 -3 -19 -6 29 -8 19 -21 -17 -21 -51 0 -76 -11 -76 -33 0
-13 7 -19 24 -19 14 0 28 5 31 10 3 6 19 10 34 10 29 0 46 4 216 55 50 14 99
26 110 26 11 0 22 3 25 7 9 12 175 50 178 41 2 -5 8 -9 13 -9 6 0 7 5 4 10 -3
6 2 13 12 16 10 3 26 10 36 15 11 6 21 8 24 5 3 -3 12 1 20 9 8 8 24 16 36 17
28 1 39 4 57 11 8 3 24 8 35 11 11 3 3 3 -19 1 -34 -4 -38 -2 -33 16 4 16 2
19 -11 14 -9 -4 -37 -12 -62 -17 -25 -6 -51 -15 -57 -20 -19 -15 -27 14 -20
73 7 55 1 67 -7 17z"/>
<path d="M200 1574 c0 -9 9 -59 20 -112 24 -119 28 -143 29 -161 1 -17 77 -10
157 14 l51 15 -34 67 c-18 38 -33 73 -33 80 0 6 -26 24 -57 39 -32 15 -75 38
-95 51 -32 19 -38 21 -38 7z"/>
<path d="M2050 1479 c-173 -17 -416 -50 -440 -60 -14 -5 -35 -27 -48 -49 -12
-22 -29 -40 -37 -40 -7 0 -20 -6 -27 -13 -7 -8 -23 -19 -36 -26 -33 -18 -27
-31 17 -31 21 0 74 -9 117 -20 44 -10 145 -31 226 -45 139 -24 155 -25 313
-16 91 6 171 13 177 17 6 4 8 24 4 54 -8 60 -52 208 -67 226 -13 16 -65 16
-199 3z"/>
</g>
</svg>
