<?xml version="1.0" standalone="no"?>
<!DOCTYPE svg PUBLIC "-//W3C//DTD SVG 20010904//EN"
 "http://www.w3.org/TR/2001/REC-SVG-20010904/DTD/svg10.dtd">
<svg version="1.0" xmlns="http://www.w3.org/2000/svg"
 width="700.000000pt" height="700.000000pt" viewBox="0 0 700.000000 700.000000"
 preserveAspectRatio="xMidYMid meet">
<metadata>
Created by potrace 1.16, written by Peter Selinger 2001-2019
</metadata>
<g transform="translate(0.000000,700.000000) scale(0.129630,-0.194444)"
fill="#000000" stroke="none">
<path d="M3760 2611 c-57 -16 -90 -34 -95 -52 -4 -10 -9 -19 -13 -20 -4 0
-200 -2 -437 -4 -236 -3 -457 -9 -490 -13 l-60 -9 85 -3 85 -3 -70 -8 c-83
-11 -111 -21 -42 -15 l48 4 -22 -24 c-13 -14 -23 -37 -23 -57 -1 -30 -3 -32
-27 -29 -19 3 -32 -3 -46 -22 -17 -21 -22 -23 -27 -10 -3 9 -6 25 -7 37 0 18
-2 17 -12 -8 -7 -16 -37 -82 -68 -146 l-57 -117 -178 -6 c-99 -4 -191 -9 -206
-11 -15 -2 -30 0 -33 5 -3 6 -2 10 4 10 6 0 16 10 22 23 11 20 9 20 -17 -4
-16 -15 -46 -30 -66 -33 -21 -4 -39 -10 -42 -14 -2 -4 242 -6 542 -4 301 1
645 -1 766 -5 l218 -8 24 28 c13 16 47 100 79 200 68 209 89 247 151 277 40
20 56 22 137 17 105 -6 220 -34 315 -78 67 -30 99 -33 42 -4 -137 71 -399 129
-480 106z m-771 -267 c9 -8 -24 -34 -44 -34 -35 0 -73 -47 -94 -114 -11 -34
-20 -54 -20 -45 -1 12 -11 16 -41 16 -23 0 -43 -4 -46 -9 -3 -4 -12 -8 -21 -8
-20 0 -12 61 19 134 34 81 29 78 142 70 56 -3 103 -8 105 -10z"/>
<path d="M2529 2556 c-90 -24 -310 -167 -508 -329 -80 -66 -161 -129 -178
-140 -18 -10 -33 -21 -33 -24 0 -3 28 -3 61 1 l62 6 121 118 c262 255 394 329
650 367 l91 13 -110 0 c-60 0 -131 -5 -156 -12z"/>
<path d="M3825 2526 c-51 -22 -80 -68 -117 -183 -53 -162 -72 -252 -64 -304
10 -68 14 -71 79 -61 55 9 56 8 51 -13 -4 -16 3 -29 26 -49 17 -14 36 -26 41
-26 5 0 23 19 40 43 37 52 46 55 134 56 59 1 74 5 94 24 21 19 33 22 85 19 34
-2 58 -1 55 2 -3 4 -29 7 -57 7 -44 1 -49 3 -36 16 8 8 12 18 10 22 -2 3 -7
26 -11 50 -10 67 -41 160 -94 280 -47 106 -48 110 -27 114 13 3 9 5 -13 6
l-33 1 16 -25 c30 -46 83 -203 116 -343 15 -64 -2 -22 -55 130 -73 208 -77
217 -98 224 -50 16 -187 -25 -187 -56 0 -6 14 -1 30 12 22 16 48 23 93 26 l64
4 26 -73 c34 -94 77 -246 77 -270 0 -21 38 -51 53 -42 6 3 7 1 3 -5 -3 -6 1
-17 10 -26 17 -18 11 -36 -13 -36 -9 0 -13 6 -10 14 16 42 -80 94 -193 106
-62 6 -78 4 -94 -9 -30 -26 -46 -67 -46 -116 0 -41 -2 -45 -24 -45 -25 0 -37
32 -35 94 1 23 4 16 13 -25 8 -44 14 -54 23 -44 6 7 8 18 3 25 -5 9 0 29 13
54 11 23 20 46 18 51 -1 6 0 7 4 4 3 -4 17 4 29 16 21 21 23 28 15 71 -5 27
-14 53 -19 58 -20 20 -9 26 48 27 31 1 45 4 29 6 -15 2 -25 9 -22 14 4 5 0 9
-9 9 -8 0 -17 -6 -20 -12 -3 -7 -4 -4 -1 7 4 16 0 21 -17 22 -13 1 -28 9 -35
18 -10 15 -13 14 -27 -8 -9 -13 -14 -33 -10 -43 4 -15 4 -16 -4 -5 -8 11 -13
5 -23 -27 -7 -23 -14 -40 -16 -38 -7 7 19 96 28 96 5 0 5 7 2 17 -5 11 -3 14
6 8 10 -5 11 -2 7 11 -7 23 24 77 57 99 13 8 57 19 98 24 l74 8 -65 1 c-36 1
-79 -5 -95 -12z"/>
<path d="M4034 2501 c4 -5 21 -12 39 -16 17 -4 62 -16 99 -27 l66 -20 27 -62
c32 -72 90 -237 100 -283 7 -33 25 -46 25 -19 0 22 -79 245 -106 299 -14 26
-21 47 -17 47 11 0 125 -203 159 -282 16 -38 32 -68 37 -68 18 0 -36 116 -117
254 -25 42 -42 76 -39 76 47 0 239 -267 217 -302 -5 -8 -1 -9 10 -5 10 4 20 7
22 7 13 0 -2 30 -52 105 -108 162 -192 228 -349 273 -100 29 -128 34 -121 23z"/>
<path d="M0 1401 l0 -428 48 3 c54 4 146 21 182 34 25 9 83 17 175 26 38 3 46
2 33 -6 -10 -6 -24 -10 -30 -9 -22 3 -98 -13 -98 -21 0 -5 15 -4 33 1 19 5 45
9 58 9 63 1 76 5 71 22 -2 10 0 18 4 18 5 1 28 5 51 9 l42 8 7 -68 c4 -38 8
-69 10 -69 2 0 14 5 27 11 20 9 26 23 36 82 21 127 21 127 42 127 22 0 24 11
7 28 -9 9 -9 15 -1 23 9 9 46 8 150 -5 164 -21 176 -24 166 -39 -4 -7 -8 -19
-8 -27 0 -10 -9 -14 -25 -13 -181 12 -189 9 -281 -103 -63 -77 -67 -84 -45
-84 7 0 40 32 71 70 57 69 91 98 103 86 4 -5 -43 -61 -98 -116 -3 -3 -23 -26
-44 -52 -39 -48 -62 -58 -84 -36 -7 7 -12 9 -12 5 0 -20 50 -47 106 -57 42 -8
64 -17 64 -26 0 -8 7 -22 15 -31 9 -10 34 -42 56 -71 47 -62 113 -112 180
-136 27 -10 49 -22 49 -27 0 -9 -42 -30 -82 -43 -27 -8 -22 -28 5 -21 18 5 17
3 -5 -10 -16 -9 -28 -20 -28 -25 0 -17 -52 -61 -79 -66 -49 -10 -122 -89 -106
-114 3 -6 2 -10 -2 -10 -17 0 -34 -40 -24 -58 6 -10 11 -12 11 -4 0 6 12 12
26 12 14 0 23 -4 19 -9 -6 -11 28 -7 47 5 7 5 8 3 3 -6 -6 -9 -2 -10 15 -5 14
5 20 3 16 -3 -3 -6 0 -13 6 -16 7 -4 -2 -4 -19 -1 -25 3 -35 0 -43 -15 -12
-23 -4 -25 34 -10 29 11 59 3 49 -13 -3 -6 -1 -7 6 -3 6 4 8 12 5 18 -5 7 0 9
13 6 11 -3 29 -1 39 5 16 8 17 7 7 -4 -19 -19 43 -45 64 -27 13 10 12 13 -4
19 -16 7 -15 8 5 8 12 1 22 -4 22 -10 0 -5 5 -7 10 -4 6 4 18 1 27 -7 15 -11
16 -11 10 5 -4 10 -3 16 2 13 18 -12 129 -17 136 -7 3 6 -7 11 -27 11 -76 2
-87 5 -76 18 6 6 21 12 34 12 13 0 23 5 22 11 -2 6 14 12 35 13 33 3 49 -6 29
-17 -4 -2 0 -2 8 1 8 2 27 5 43 7 15 1 30 5 34 8 3 4 12 -1 19 -11 12 -15 15
-15 24 -2 8 13 12 12 24 -6 9 -12 25 -24 36 -27 22 -6 26 3 8 21 -8 8 -8 12
-1 12 6 0 16 -7 23 -15 7 -8 29 -15 49 -15 30 -1 33 -2 17 -11 -27 -16 -119
-17 -134 -2 -16 16 -42 17 -42 2 0 -6 7 -8 18 -4 11 4 13 3 7 -3 -5 -6 -19
-12 -30 -15 -11 -3 16 -5 60 -6 84 0 125 -7 125 -22 0 -5 8 -9 18 -8 10 0 12
3 4 6 -7 2 -17 14 -23 25 -9 16 -8 19 1 13 21 -13 71 -15 89 -4 13 8 11 9 -9
4 -21 -5 -22 -4 -7 5 28 18 20 28 -16 20 -39 -8 -66 10 -43 30 11 8 15 8 18
-1 7 -20 57 -2 54 18 -2 12 5 20 22 23 28 5 37 25 12 25 -32 1 -60 17 -58 33
2 12 -3 16 -17 14 -20 -2 -20 -2 0 10 11 6 49 13 85 15 36 1 80 5 98 8 23 3
34 0 39 -10 4 -12 20 -14 79 -11 48 3 72 2 69 -5 -4 -5 -11 -7 -16 -4 -10 7
-12 -6 -3 -30 5 -13 9 -14 15 -4 6 10 12 10 31 1 l23 -12 -25 5 c-23 6 -24 5
-5 -6 11 -7 45 -12 75 -12 30 1 61 -4 69 -10 12 -9 13 -9 7 1 -9 15 6 16 22 0
9 -9 12 -9 12 0 0 6 7 9 15 6 8 -4 12 -11 8 -17 -3 -6 -1 -7 6 -3 18 11 83 18
77 7 -3 -4 4 -9 17 -9 12 0 27 -1 32 -2 6 -1 25 -2 44 -1 25 1 32 5 27 16 -3
8 -1 15 3 15 5 0 18 3 28 7 17 6 17 5 2 -13 -9 -10 -20 -29 -23 -41 -4 -13
-14 -23 -22 -23 -18 0 -18 -8 1 -26 28 -28 17 -36 -49 -32 -49 2 -62 0 -54 -9
5 -6 17 -9 25 -6 10 4 14 2 10 -4 -4 -6 -26 -14 -50 -17 -48 -8 -144 -22 -201
-31 -28 -5 -35 -9 -26 -15 8 -5 18 -6 23 -3 5 3 51 7 103 9 52 2 102 7 112 12
24 13 132 21 132 10 0 -5 -4 -6 -10 -3 -16 10 -11 -8 9 -34 15 -20 21 -22 37
-12 19 12 19 12 0 6 -11 -3 -23 0 -28 7 -12 19 -10 28 7 28 8 0 15 4 15 9 0 5
11 11 25 13 14 3 25 2 25 -3 0 -4 23 -7 50 -6 28 1 50 -1 50 -5 0 -5 5 -8 11
-8 6 0 9 7 5 15 -4 11 1 15 17 15 14 0 18 -3 10 -8 -14 -9 -11 -44 5 -50 7 -2
15 3 18 12 3 9 14 16 24 16 11 0 22 5 25 10 4 6 15 0 26 -14 12 -16 26 -23 35
-19 13 5 13 7 2 15 -8 5 3 7 30 4 31 -4 42 -1 42 8 0 16 -59 25 -89 14 -13 -4
-21 -3 -21 3 0 6 -9 8 -20 4 -11 -4 -20 -2 -20 4 0 6 17 11 38 11 29 0 40 5
47 23 6 12 17 21 24 19 7 -1 10 2 7 7 -10 16 -53 10 -52 -7 2 -24 -74 -36 -94
-15 -13 14 -13 15 3 6 21 -11 77 -5 77 8 0 9 -12 11 -57 12 -32 1 -29 17 3 17
15 0 23 4 19 10 -5 7 15 9 60 7 74 -5 72 -4 77 -32 2 -15 -3 -20 -22 -22 -14
0 -29 -1 -35 -2 -27 -3 43 -34 83 -37 41 -3 45 -2 30 10 -25 18 -23 21 16 22
27 1 36 -4 45 -24 10 -21 9 -23 -4 -19 -11 5 -15 0 -16 -16 0 -19 -1 -20 -8
-4 -6 17 -9 17 -19 4 -11 -12 -8 -17 19 -26 27 -9 33 -8 50 12 22 27 23 33 5
40 -8 3 -14 15 -13 26 2 25 10 27 27 6 7 -8 16 -12 22 -9 5 3 4 12 -3 20 -9
11 -8 14 5 14 9 0 16 4 16 8 0 4 -16 6 -35 4 -48 -6 -44 5 7 18 30 9 38 14 28
20 -23 14 -8 18 42 11 26 -4 45 -4 42 1 -3 4 0 8 5 8 6 0 11 -6 11 -12 0 -9 2
-10 8 -2 5 9 131 18 197 14 6 0 48 -2 95 -5 l85 -4 -65 10 c-36 5 -81 11 -100
13 -48 6 -48 6 -25 15 11 5 27 5 35 1 25 -12 158 -12 140 0 -8 5 -23 10 -32
10 -10 0 -18 5 -18 10 0 6 4 10 10 10 5 0 18 9 29 21 11 12 27 19 38 16 15 -4
14 -5 -4 -6 -13 0 -23 -6 -23 -11 0 -6 17 -10 39 -8 22 1 45 -3 53 -9 19 -16
61 -20 65 -6 3 7 -8 15 -24 20 l-28 7 25 7 c16 4 19 7 8 8 -10 1 -18 4 -18 9
0 4 -21 7 -47 6 -35 -1 -42 1 -29 8 10 5 27 7 39 4 19 -4 18 -1 -7 19 l-29 23
96 -3 c55 -2 99 1 103 6 3 5 2 9 -3 8 -4 -1 -19 2 -32 8 -38 15 -7 26 40 13
34 -9 38 -14 29 -26 -8 -9 -9 -14 -2 -14 6 0 20 -9 30 -20 11 -11 34 -23 53
-25 18 -2 35 -9 37 -15 2 -5 12 -10 23 -10 10 0 19 -3 19 -8 0 -7 76 -44 118
-57 13 -4 21 -9 18 -12 -10 -11 16 -33 38 -33 11 0 34 -7 50 -15 15 -8 33 -15
38 -15 15 0 49 -41 42 -51 -3 -5 1 -6 9 -3 8 3 31 -6 52 -20 21 -14 41 -26 44
-26 3 0 11 -12 18 -26 12 -25 12 -25 -12 -10 -13 9 -31 16 -40 16 -12 0 -13
-3 -3 -19 15 -25 120 -40 143 -21 11 9 15 9 15 1 0 -7 33 -11 100 -11 111 0
119 6 75 54 -14 15 -35 26 -49 26 -15 0 -30 8 -36 20 -6 10 -16 17 -23 14 -7
-2 -29 6 -48 19 -19 13 -56 30 -82 37 -26 8 -58 25 -71 37 -14 13 -33 23 -44
23 -10 0 -22 4 -27 9 -6 5 -23 11 -40 12 -16 2 -35 7 -41 11 -7 5 -16 8 -20 7
-22 -4 -34 2 -34 16 0 8 -5 15 -11 15 -6 0 -8 -7 -5 -17 6 -14 3 -14 -16 3
-13 12 -30 24 -38 27 -11 4 -9 7 8 12 12 4 22 11 22 16 0 10 -84 23 -110 16
-16 -4 -18 -2 -10 13 7 14 5 20 -7 25 -10 3 -19 1 -21 -4 -6 -18 -19 -12 -25
10 -3 12 -10 18 -16 14 -6 -3 -11 -2 -11 2 0 12 -38 14 -45 2 -4 -5 -12 -9
-18 -9 -7 0 -4 5 6 11 25 14 21 22 -18 44 -21 11 -34 24 -31 32 3 7 0 13 -6
13 -6 0 -9 2 -6 5 10 10 37 -7 44 -28 6 -19 8 -19 19 -4 7 9 23 17 36 17 21 1
22 2 7 11 -10 5 -18 15 -18 22 0 8 3 9 8 1 4 -6 15 -14 26 -17 14 -6 17 -4 12
8 -3 9 -2 13 4 10 16 -10 181 -14 175 -4 -8 13 -2 11 31 -6 33 -17 74 -20 74
-5 0 6 -4 11 -10 11 -5 1 -14 3 -20 4 -5 1 -20 3 -31 4 -17 1 -19 4 -10 14 9
12 -6 15 -87 21 -123 8 -146 14 -131 32 6 8 21 12 33 9 11 -2 44 -7 71 -10 28
-3 66 -7 87 -10 24 -3 40 1 49 11 7 8 20 12 31 8 11 -3 32 -1 46 4 41 16 102
22 102 11 0 -6 -4 -7 -10 -4 -5 3 -10 1 -10 -5 0 -6 14 -13 30 -16 17 -4 30
-10 30 -15 0 -5 9 -9 20 -9 11 0 20 -4 20 -10 0 -5 -7 -6 -17 -3 -11 4 -14 3
-9 -5 4 -7 2 -12 -4 -12 -6 0 -9 -4 -6 -9 8 -12 -50 -25 -65 -15 -8 5 -9 3 -4
-6 4 -7 2 -16 -6 -21 -9 -6 -10 -9 -2 -9 6 0 15 5 18 10 4 6 40 9 86 8 62 -2
75 -4 57 -12 -23 -10 -23 -10 5 -14 23 -3 26 -6 16 -18 -7 -8 -7 -14 -1 -14 5
0 12 7 16 15 6 17 39 20 67 5 11 -6 19 -7 19 -1 0 5 45 8 105 8 67 -1 110 2
121 10 19 14 10 33 -17 33 -10 0 -19 4 -19 10 0 5 10 10 23 9 12 0 81 2 152 5
72 3 151 0 175 -5 74 -17 124 -19 133 -6 6 8 7 6 3 -6 -4 -13 0 -17 23 -17 15
0 49 -6 74 -14 l47 -14 0 52 0 52 -52 17 c-81 26 -155 36 -168 23 -8 -8 -11
-7 -8 3 3 14 -44 29 -157 52 -27 6 -64 17 -82 25 -17 7 -42 14 -56 14 -39 0
-72 15 -106 49 l-32 31 23 30 c17 24 28 30 45 25 36 -9 242 -6 322 4 73 9 120
30 71 32 -171 4 -395 11 -397 13 -1 1 0 12 4 24 5 21 11 22 97 23 50 0 125 2
166 3 41 2 132 4 203 5 118 2 127 4 127 22 0 10 -7 19 -15 19 -8 0 -15 -5 -15
-10 0 -6 -56 -10 -152 -9 -84 0 -208 -2 -276 -5 l-123 -6 3 28 c3 26 5 27 78
32 l75 5 -63 8 c-34 4 -67 5 -73 2 -7 -5 -9 20 -7 79 l3 86 42 0 c23 0 45 -5
48 -11 4 -6 12 -8 19 -6 6 2 20 1 31 -4 19 -7 19 -8 -3 -8 -13 -1 -32 -6 -42
-11 -15 -8 -23 -6 -38 10 -17 18 -21 19 -31 6 -27 -32 8 -43 169 -51 120 -5
279 -37 295 -58 13 -19 35 -23 35 -7 0 6 9 10 20 10 19 0 20 7 20 90 l0 91
-52 -6 c-59 -6 -209 -9 -248 -5 -61 6 41 18 168 19 l132 1 0 135 0 135 -62 0
c-44 0 -71 6 -91 18 -27 18 -29 18 -84 0 -31 -11 -68 -17 -82 -15 -14 3 -33 1
-43 -4 -10 -6 -19 -5 -23 1 -3 5 -16 10 -28 10 -12 0 -35 7 -52 16 -24 12 -34
13 -52 3 -19 -10 -23 -21 -23 -61 0 -56 -21 -188 -30 -188 -4 0 -3 21 1 48 20
121 -2 238 -51 274 -21 15 -31 17 -56 8 -57 -20 -96 -97 -160 -318 -20 -70
-41 -132 -48 -139 -6 -6 -128 -43 -271 -82 -143 -39 -331 -92 -418 -119 -102
-32 -160 -45 -161 -38 -2 6 -11 43 -21 81 -10 39 -22 115 -26 170 -21 256 -85
355 -227 355 -94 0 -185 -67 -242 -180 -17 -34 -60 -144 -60 -155 0 -1 24 10
52 24 40 19 68 26 113 26 52 0 125 -19 125 -32 0 -16 -77 -187 -102 -226 -45
-71 -61 -76 -96 -29 -36 51 -108 132 -116 132 -16 0 -2 -28 37 -79 52 -67 71
-100 61 -109 -4 -4 -9 -2 -11 4 -2 6 -25 40 -51 75 -57 77 -73 56 -18 -24 32
-48 72 -127 62 -127 -2 0 -23 34 -47 75 -24 41 -47 75 -50 75 -5 0 -23 -118
-31 -205 -3 -33 -14 -45 -40 -45 -10 0 -35 -19 -57 -42 l-39 -42 -123 -7
c-166 -9 -377 0 -411 17 -27 14 -311 255 -323 274 -12 19 3 23 37 10 18 -8
101 -55 183 -105 230 -141 199 -130 358 -127 75 1 137 -1 137 -6 0 -4 -5 -13
-12 -20 -9 -9 -4 -12 25 -12 27 0 46 8 73 32 35 31 36 34 31 88 -2 30 -19 91
-36 135 -65 162 -148 247 -255 260 -52 7 -122 0 -416 -41 -95 -13 -171 -15
-439 -9 -323 6 -455 16 -711 56 -116 17 -150 27 -240 69 -142 65 -148 67 -160
38 -21 -52 -29 -55 -120 -48 -62 4 -79 8 -62 14 13 4 49 5 80 2 31 -4 63 -3
70 2 7 5 36 58 65 118 29 60 64 130 78 155 15 26 29 63 33 83 6 33 5 36 -21
42 -36 8 -130 42 -165 60 -16 9 -60 14 -119 14 -88 0 -91 -1 -76 -18 9 -10 20
-32 23 -50 6 -27 3 -32 -19 -37 -33 -9 -59 0 -98 33 -75 63 -83 77 -51 84 9 2
-16 7 -56 11 -40 4 -89 14 -109 22 -19 8 -39 15 -44 15 -5 0 -9 -189 -9 -429z
m3473 -231 c20 -21 47 -61 61 -88 34 -67 68 -237 51 -254 -8 -7 -237 42 -252
54 -18 14 -16 42 5 82 10 19 34 82 53 140 18 58 37 106 40 106 4 0 23 -18 42
-40z m-2148 -30 c138 -12 271 -23 296 -23 l46 -2 2 -87 c2 -84 1 -88 -22 -93
-13 -4 -122 3 -243 15 -120 12 -247 24 -281 27 l-63 6 0 88 c0 61 -4 89 -12
92 -7 2 -4 3 7 1 11 -2 133 -13 270 -24z m720 -40 c244 -13 393 -28 419 -43
18 -10 10 -13 -53 -19 -41 -4 -76 -10 -79 -13 -13 -13 15 -18 108 -23 l100 -5
34 -42 35 -42 -55 -6 c-98 -10 -87 -30 21 -35 72 -4 73 -4 121 -53 26 -27 46
-51 43 -53 -3 -3 -59 -6 -124 -7 -142 -2 -146 -1 -323 109 -239 149 -265 158
-509 177 -46 4 -83 9 -83 11 0 1 5 15 12 29 10 23 16 25 77 25 36 0 152 -5
256 -10z m2451 -29 c-6 -9 -123 -41 -221 -60 -33 -6 -161 -42 -285 -80 -232
-71 -329 -93 -316 -72 4 6 18 11 30 11 13 0 127 31 253 70 126 38 290 83 363
100 73 16 135 32 138 35 9 9 43 5 38 -4z m-135 -153 c19 -29 9 -34 -48 -27
-32 4 -74 12 -93 18 -19 6 -48 11 -65 10 -22 -1 -11 -7 47 -26 56 -18 75 -29
71 -39 -3 -8 0 -14 6 -14 6 0 11 4 11 9 0 6 12 3 28 -5 15 -7 36 -14 47 -14
11 -1 31 -7 44 -14 22 -12 20 -13 -35 -19 -33 -3 -72 -4 -89 -2 -16 3 -43 2
-60 -2 l-30 -6 39 -13 c26 -9 61 -12 105 -8 36 3 63 3 60 -1 -7 -6 -15 -8 -88
-20 -26 -4 -39 -10 -31 -15 8 -5 9 -10 2 -14 -6 -3 -13 -2 -17 4 -3 5 -15 10
-25 10 -10 0 -22 5 -26 11 -4 8 0 9 15 4 11 -3 21 -2 21 3 0 18 -44 23 -56 6
-7 -8 -21 -17 -33 -19 -12 -2 -26 -7 -31 -10 -11 -7 -41 7 -43 20 -1 5 20 14
47 19 27 6 51 17 54 25 3 8 -1 12 -9 9 -8 -3 -30 1 -50 8 -28 9 -40 10 -49 1
-10 -9 -11 -9 -6 0 5 9 2 11 -8 7 -9 -3 -16 -12 -16 -19 0 -8 -10 -11 -27 -9
-16 2 -47 4 -70 5 -24 1 -43 6 -43 11 0 4 -9 8 -21 8 -14 0 -19 -5 -16 -14 4
-9 -4 -13 -25 -14 -28 -1 -29 0 -12 14 18 15 18 15 1 10 -10 -3 -23 -6 -28 -6
-6 0 -7 -5 -3 -12 4 -6 3 -8 -4 -4 -6 3 -22 2 -36 -4 -18 -6 -26 -6 -26 1 0 6
-5 7 -10 4 -8 -5 -8 -11 -1 -19 6 -7 8 -16 4 -19 -3 -4 1 -8 10 -8 30 -2 35
-4 43 -12 5 -4 -10 -6 -31 -3 -22 2 -52 5 -66 5 -22 1 -26 5 -21 26 3 16 11
25 24 25 10 0 17 4 13 10 -3 5 -12 7 -20 3 -8 -3 -15 -1 -15 5 0 6 21 15 48
21 38 8 261 77 362 112 39 13 271 3 281 -13z m-1144 -201 c7 0 10 -4 7 -8 -2
-4 1 -20 7 -36 16 -41 60 -274 53 -284 -15 -26 -127 -1 -196 43 -44 27 -118
113 -118 135 0 5 37 35 83 66 46 31 92 66 102 77 11 13 25 18 34 14 9 -3 21
-7 28 -7z m1365 -7 c23 -9 23 -9 -2 -11 -14 0 -33 -1 -42 0 -10 1 -26 -3 -35
-9 -14 -9 -4 -10 42 -4 33 3 74 7 91 9 17 1 37 6 44 10 9 5 11 4 6 -3 -4 -7
-2 -12 3 -12 6 0 11 4 11 9 0 16 41 19 75 5 19 -8 50 -14 69 -14 19 0 41 -7
50 -15 8 -9 19 -15 23 -14 4 1 17 -1 28 -5 11 -5 27 -10 35 -14 22 -8 -204
-49 -241 -44 -23 3 -30 1 -24 -8 11 -17 -65 -10 -87 8 -10 9 -18 10 -18 4 0
-7 -17 -6 -55 3 -34 7 -55 9 -55 3 0 -14 -139 -3 -154 12 -8 8 3 10 44 5 30
-3 70 -1 88 4 19 6 32 6 32 0 0 -5 5 -9 12 -9 6 0 4 7 -5 18 -10 10 -14 22
-10 25 3 4 0 8 -8 8 -72 6 -106 18 -53 20 16 0 23 3 17 6 -7 2 -13 8 -13 12 0
11 106 12 132 1z m-2792 -54 c74 -8 189 -20 255 -26 210 -19 385 -42 379 -51
-6 -10 13 -13 74 -9 43 2 53 -8 28 -29 -11 -9 -20 -10 -36 -1 -20 11 -21 10
-11 -8 8 -15 8 -22 -2 -25 -7 -3 -5 -6 5 -6 9 -1 21 -9 27 -18 8 -14 14 -16
28 -7 20 12 46 7 38 -7 -4 -5 0 -6 8 -3 8 3 18 1 22 -5 3 -7 -2 -11 -14 -11
-11 0 -23 -4 -26 -10 -3 -5 -13 -10 -21 -10 -8 0 -13 3 -10 8 2 4 -7 12 -20
19 -16 7 -24 8 -24 1 0 -6 -8 -4 -17 3 -15 12 -16 12 -10 -3 8 -21 -6 -24 -22
-4 -9 11 -9 15 1 19 9 4 7 6 -4 6 -9 1 -20 -3 -23 -9 -3 -6 -14 -10 -23 -10
-11 0 -13 3 -6 8 9 5 8 11 -2 20 -8 7 -14 8 -14 2 0 -6 -25 -10 -57 -10 -54
-1 -56 -2 -34 -14 15 -8 20 -16 12 -20 -6 -4 -15 -4 -21 -1 -5 3 -10 2 -10 -4
0 -5 -13 -7 -30 -5 -22 4 -28 2 -25 -8 4 -9 -2 -14 -14 -14 -11 0 -17 4 -14 9
3 5 -3 7 -13 5 -10 -2 -21 -14 -25 -28 -4 -14 -7 -19 -8 -12 -1 6 -10 12 -21
12 -11 0 -20 5 -20 10 0 10 14 14 38 11 6 -1 12 3 12 9 0 16 -25 12 -69 -12
-39 -21 -47 -44 -12 -35 11 2 18 -1 18 -9 0 -17 3 -17 -39 1 -34 14 -36 13
-55 -14 -18 -23 -26 -27 -58 -23 -25 3 -40 0 -46 -9 -7 -11 -9 -11 -9 3 0 9 6
19 13 21 7 3 5 6 -5 6 -10 1 -18 -5 -18 -12 0 -8 -7 -14 -15 -14 -8 0 -15 6
-15 14 0 7 -9 13 -20 13 -11 0 -20 -4 -20 -9 0 -6 -12 -6 -27 -2 -16 4 -54 6
-85 5 -54 -3 -116 15 -101 29 3 4 -3 10 -13 13 -20 8 -80 54 -69 54 3 0 -13
18 -37 40 -24 22 -49 40 -55 40 -22 0 -14 18 10 24 36 9 109 52 153 90 28 24
46 33 64 30 14 -2 86 -10 160 -18z"/>
<path d="M3406 1105 l-27 -86 22 -60 c12 -33 18 -63 14 -67 -4 -4 -10 -1 -12
6 -3 6 -9 10 -14 6 -5 -3 -12 8 -15 25 -7 35 -12 38 -29 14 -25 -33 -7 -48 88
-72 51 -13 105 -26 121 -29 l28 -5 -6 54 c-11 86 -44 180 -85 238 -20 30 -42
56 -48 58 -6 2 -22 -35 -37 -82z"/>
<path d="M3083 637 c-114 -79 -113 -74 -45 -149 49 -54 122 -88 190 -88 49 0
52 1 47 23 -3 12 -14 66 -25 120 -18 91 -40 150 -57 160 -5 2 -54 -28 -110
-66z"/>
<path d="M2107 556 c-2 -5 -42 -10 -89 -11 -48 -2 -91 -6 -97 -10 -6 -3 -33
-8 -59 -11 -59 -5 -132 -24 -132 -34 0 -15 141 -10 243 10 115 22 131 23 118
2 -8 -14 -118 -35 -133 -26 -5 3 -21 3 -36 -2 l-27 -7 35 -8 c19 -4 52 -4 74
1 21 5 58 7 82 6 30 -2 45 2 49 12 7 20 6 24 -5 17 -5 -3 -10 -3 -11 2 0 4 -2
18 -3 31 -2 18 2 22 26 22 15 0 28 4 28 10 0 12 -59 8 -63 -4z"/>
<path d="M2830 1752 c-88 -5 -308 -33 -517 -68 -197 -32 -215 -33 -243 -19
-17 9 -79 19 -147 25 -176 13 -942 34 -985 26 -29 -5 -45 -17 -69 -51 -18 -25
-36 -45 -41 -45 -5 0 -7 -4 -4 -9 3 -4 -4 -28 -16 -52 -30 -61 -36 -148 -13
-183 35 -52 169 -100 408 -146 123 -23 312 -26 542 -10 276 20 370 44 426 107
29 34 31 40 26 93 -2 31 -12 72 -22 90 -13 25 -14 34 -5 40 24 15 71 -9 132
-65 84 -78 94 -81 208 -55 314 72 419 113 476 188 76 100 25 145 -156 134z
m110 -34 c0 -4 -22 -8 -50 -8 -50 0 -69 -15 -27 -22 32 -6 -39 -24 -125 -33
-74 -7 -93 7 -35 25 32 10 32 10 2 5 -16 -2 -77 -10 -135 -17 -102 -13 -104
-13 -50 -18 53 -6 54 -6 28 -18 -35 -14 -166 -28 -155 -16 5 5 23 14 40 21 49
18 9 15 -98 -7 -53 -11 -110 -20 -126 -20 -32 0 -39 15 -11 24 40 13 422 71
582 89 61 7 160 4 160 -5z m-1534 -104 c18 -9 42 -30 53 -48 22 -37 35 -96 21
-96 -6 0 -10 9 -10 20 0 53 -61 120 -109 120 -42 0 -86 -34 -109 -84 -26 -54
-27 -67 -7 -134 28 -94 104 -121 171 -59 l35 32 -49 38 c-54 41 -73 45 -92 21
-8 -8 -23 -20 -34 -25 -12 -6 -2 8 21 30 33 32 43 50 49 88 12 83 25 95 20 19
-4 -69 -4 -69 36 -112 44 -48 58 -54 59 -26 0 11 2 12 6 4 7 -17 -35 -76 -68
-96 -37 -22 -91 -20 -122 4 -36 29 -61 99 -55 159 6 57 53 125 102 147 40 17
42 17 82 -2z m-403 -89 c142 -14 167 -23 167 -58 0 -22 -16 -22 -221 9 -123
18 -139 25 -120 48 16 19 2 19 174 1z"/>
<path d="M3175 1247 c-67 -27 -92 -46 -98 -76 -6 -26 0 -37 34 -73 22 -24 54
-62 70 -86 25 -34 33 -40 48 -33 17 10 74 117 112 214 l19 48 -26 9 c-34 13
-122 11 -159 -3z"/>
<path d="M743 453 c-7 -2 -13 -10 -13 -16 -1 -37 -73 -69 -180 -80 -20 -2 -8
-4 28 -5 34 -1 62 -4 62 -7 0 -10 -66 -75 -76 -75 -13 0 -46 -17 -88 -45 -28
-18 -28 -19 -6 -27 13 -5 18 -12 14 -20 -4 -7 -9 -23 -10 -36 -2 -13 -17 -37
-35 -53 -20 -17 -29 -34 -26 -43 4 -10 -3 -21 -21 -30 -25 -14 -22 -15 58 -14
61 0 75 2 50 7 -56 11 -64 20 -43 43 10 11 18 23 18 27 0 3 3 5 8 3 4 -1 14
16 23 38 9 22 21 40 27 40 5 0 25 16 44 35 19 19 42 35 52 35 10 0 26 9 35 19
17 19 17 20 -6 23 -30 4 -34 31 -6 43 13 6 22 14 20 18 -4 10 42 47 57 47 9 0
9 -5 0 -21 -9 -17 -8 -20 3 -17 7 3 19 15 25 29 11 21 10 25 -10 30 -21 6 -20
7 10 25 18 10 33 22 33 27 0 8 -28 8 -47 0z"/>
<path d="M4918 375 c-3 -3 -16 -8 -29 -10 -13 -3 -35 -7 -49 -10 -14 -3 -44
-6 -68 -7 -24 -1 -45 -5 -48 -9 -5 -8 25 -14 118 -24 32 -3 84 -15 115 -27 42
-17 79 -23 136 -23 72 0 79 2 100 28 21 25 27 27 97 26 108 -1 110 -1 110 19
0 17 -14 19 -187 22 -104 1 -207 3 -230 4 -24 0 -43 4 -43 8 0 9 -14 11 -22 3z"/>
<path d="M1550 60 c-11 -7 -12 -10 -2 -10 7 0 10 -5 7 -10 -6 -10 -69 -6 -125
7 -57 13 -72 12 -77 -7 -5 -19 -47 -27 -158 -30 -27 -1 -52 -4 -55 -7 -3 -3
126 -3 287 -2 160 2 289 7 286 12 -2 4 -10 7 -16 7 -7 0 -30 5 -52 11 -37 10
-38 12 -20 25 22 17 3 19 -27 3 -14 -8 -23 -8 -27 -1 -4 7 -12 8 -21 2z"/>
</g>
</svg>
