<?xml version="1.0" standalone="no"?>
<!DOCTYPE svg PUBLIC "-//W3C//DTD SVG 20010904//EN"
 "http://www.w3.org/TR/2001/REC-SVG-20010904/DTD/svg10.dtd">
<svg version="1.0" xmlns="http://www.w3.org/2000/svg"
 width="700.000000pt" height="700.000000pt" viewBox="0 0 700.000000 700.000000"
 preserveAspectRatio="xMidYMid meet">
<metadata>
Created by potrace 1.16, written by Peter Selinger 2001-2019
</metadata>
<g transform="translate(0.000000,700.000000) scale(0.096154,-0.153846)"
fill="#000000" stroke="none">
<path d="M5 4540 c3 -5 12 -7 20 -3 9 3 15 -1 15 -8 0 -10 3 -10 12 -1 16 16
25 15 25 -4 0 -12 -8 -14 -39 -9 -34 6 -38 5 -38 -15 0 -16 4 -20 15 -16 19 7
19 1 -1 -30 -16 -23 -16 -24 2 -18 18 5 18 5 2 -8 -15 -13 -17 -44 -17 -316
-1 -233 2 -302 12 -302 9 0 9 -2 -1 -8 -15 -10 -16 -232 -1 -232 5 0 9 -9 9
-20 0 -11 -4 -20 -10 -20 -5 0 -10 -25 -10 -56 0 -34 4 -53 10 -49 6 3 10 1
10 -4 0 -6 -5 -11 -10 -11 -15 0 -11 -236 3 -269 9 -19 9 -25 -1 -29 -6 -2
-12 -17 -12 -33 0 -18 4 -28 10 -24 5 3 10 -2 11 -12 1 -13 3 -11 9 7 6 18 8
4 9 -47 1 -40 -2 -73 -7 -73 -4 0 -7 19 -6 43 1 37 1 38 -4 7 -4 -33 -5 -34
-12 -10 -5 16 -7 3 -5 -35 2 -44 6 -61 18 -63 15 -3 27 -43 27 -88 0 -17 -6
-24 -20 -24 -11 0 -20 -4 -20 -9 0 -5 8 -8 17 -7 17 1 18 -17 23 -214 3 -118
4 -217 3 -219 -2 -3 -14 6 -28 19 l-25 23 0 -21 c0 -13 12 -40 26 -61 25 -39
25 -41 19 -173 -4 -73 -14 -171 -23 -218 -21 -113 -30 -829 -10 -842 10 -6 10
-8 1 -8 -9 0 -13 -16 -13 -46 l0 -45 93 4 c50 3 103 9 117 14 29 12 51 7 44
-11 -3 -7 2 -13 10 -13 8 0 12 6 9 14 -3 7 0 13 6 13 10 0 15 -13 12 -32 0 -3
24 -8 53 -10 37 -2 52 0 49 8 -2 7 -13 10 -23 7 -11 -3 -31 -2 -46 1 -20 5
-23 10 -15 20 6 7 7 16 3 21 -4 4 3 2 16 -4 26 -14 30 -26 5 -16 -12 4 -15 3
-8 -4 14 -14 87 10 80 26 -8 21 26 15 46 -9 11 -11 19 -16 19 -9 0 7 4 10 9 7
10 -6 61 16 61 27 0 4 8 7 18 6 9 0 12 -3 5 -5 -17 -7 -4 -34 16 -34 13 0 14
2 2 9 -12 8 -10 12 12 22 21 9 30 9 42 -1 8 -7 18 -10 22 -6 3 3 1 6 -6 6 -7
0 -9 5 -5 12 4 7 3 8 -4 4 -7 -4 -12 -3 -12 3 0 7 -8 7 -25 1 -25 -9 -37 4
-13 13 8 3 6 6 -4 6 -10 1 -18 -3 -18 -9 0 -5 -9 -10 -20 -10 -11 0 -20 6 -20
14 0 9 -10 13 -32 10 -53 -5 -55 -6 -23 -14 30 -8 30 -8 -8 -9 -23 -1 -36 3
-32 9 3 6 2 10 -3 10 -6 0 -12 -7 -16 -15 -3 -8 -13 -15 -22 -15 -10 0 -14 6
-11 14 4 10 -7 15 -41 19 -26 3 -52 1 -57 -3 -6 -5 -17 -5 -25 0 -13 8 -12 10
0 14 8 2 175 10 370 16 394 12 476 15 860 30 146 6 276 13 290 15 14 2 72 7
130 11 58 3 136 9 174 13 67 7 68 7 78 -18 21 -53 33 -77 50 -103 23 -34 23
-36 -9 -41 -24 -3 -23 -4 4 -3 22 0 41 -8 62 -28 16 -15 51 -39 78 -52 44 -22
46 -23 19 -24 -16 0 -37 7 -47 16 -15 14 -17 14 -15 -2 1 -11 -8 -17 -26 -19
-21 -3 -28 1 -29 13 0 13 -2 12 -9 -4 -7 -18 -15 -21 -49 -18 -22 1 -43 -2
-46 -7 -4 -5 2 -9 12 -10 14 0 15 -2 3 -6 -8 -3 -24 -13 -35 -22 -18 -15 -19
-15 -6 2 10 13 11 17 1 17 -7 0 -19 -8 -27 -17 -8 -10 -11 -12 -7 -4 3 7 0 17
-7 22 -10 6 -4 9 19 9 17 0 32 3 32 8 0 6 -29 7 -73 3 -5 -1 -6 -5 -3 -10 3
-5 -2 -12 -11 -15 -14 -6 -14 -8 3 -21 13 -11 15 -15 4 -13 -8 2 -18 6 -21 11
-3 4 -15 9 -27 12 -12 2 -26 6 -31 9 -5 4 -12 0 -14 -6 -4 -10 -6 -10 -6 -1
-1 7 -9 10 -18 7 -15 -5 -15 -3 1 10 11 9 16 16 10 16 -5 0 -2 5 6 10 13 8 12
10 -2 10 -10 0 -18 -6 -18 -14 0 -8 -10 -22 -22 -30 l-22 -16 29 -2 c17 0 35
-2 40 -3 6 -2 18 -3 28 -4 32 -2 17 -19 -20 -24 -25 -3 -44 1 -56 11 -11 10
-17 11 -17 4 0 -7 5 -12 10 -12 14 0 12 -18 -2 -23 -7 -2 1 -2 17 0 24 3 27 2
13 -7 -17 -10 -66 -9 -84 3 -25 15 -118 -30 -106 -52 2 -3 -2 -7 -9 -10 -7 -2
-9 1 -5 8 4 6 2 11 -3 11 -25 0 -8 -28 19 -32 24 -4 27 -2 19 9 -16 18 3 16
27 -3 13 -11 15 -17 7 -20 -15 -7 -17 -24 -4 -24 14 0 25 42 13 49 -6 4 7 6
29 6 21 0 39 -3 39 -8 0 -4 4 -5 10 -2 5 3 10 -1 10 -9 0 -14 -25 -22 -53 -17
-5 1 -6 -3 -3 -8 4 -5 -2 -12 -11 -14 -14 -4 -13 -5 5 -6 12 0 22 4 22 9 0 6
9 10 19 10 12 0 26 12 35 30 8 17 10 28 5 25 -5 -4 -9 0 -9 7 0 10 -3 9 -11
-2 -8 -12 -12 -12 -16 -2 -4 10 -8 10 -19 1 -8 -7 -18 -9 -21 -5 -12 12 20 26
57 25 19 0 45 3 58 6 14 5 22 3 22 -4 0 -10 -14 -15 -32 -12 -5 0 -8 -4 -8 -9
0 -6 1 -10 3 -10 1 0 16 -4 34 -9 28 -8 31 -7 30 10 -1 10 -5 19 -10 19 -4 0
-5 5 -1 11 4 8 9 7 14 -2 7 -10 11 -10 24 0 20 17 21 4 1 -15 -17 -18 -20 -34
-5 -34 6 0 10 4 10 9 0 5 8 12 17 15 14 6 14 3 -3 -15 -19 -22 -19 -22 1 -15
16 6 18 5 8 -5 -17 -17 -16 -29 3 -29 8 0 12 5 9 10 -3 6 -1 10 4 10 6 0 11
-7 11 -15 0 -8 5 -15 11 -15 5 0 8 -4 4 -10 -3 -5 -12 -7 -20 -3 -8 3 -15 1
-15 -5 0 -5 9 -12 20 -15 11 -3 20 -1 20 4 0 5 13 17 30 28 16 10 27 21 23 24
-3 4 -1 7 5 7 20 0 13 -19 -13 -36 -14 -9 -25 -23 -25 -30 0 -19 16 -18 24 1
3 8 16 14 28 14 l23 -2 -22 -4 c-36 -7 -27 -23 13 -23 21 0 33 4 29 10 -3 5 1
10 9 10 10 0 13 -6 9 -17 -6 -16 -5 -16 10 -4 9 7 14 17 11 22 -3 5 0 9 5 9
12 0 14 -11 5 -34 -3 -9 -13 -16 -22 -16 -8 0 -13 -3 -9 -6 10 -10 47 7 47 22
0 8 5 14 11 14 5 0 7 -5 4 -10 -3 -6 1 -10 9 -10 10 0 16 9 16 21 0 18 2 19
15 9 8 -7 15 -20 15 -30 0 -12 10 -19 30 -22 23 -4 27 -2 19 8 -8 10 -6 12 10
9 13 -2 19 0 15 7 -4 7 2 8 17 3 13 -4 28 -14 32 -21 9 -16 43 -19 52 -4 4 7
-2 9 -19 4 -14 -3 -26 -2 -26 3 0 6 16 10 35 11 19 1 35 -2 35 -7 0 -10 51 -2
68 12 8 6 12 6 12 -1 0 -6 -5 -12 -12 -14 -7 -3 -6 -7 5 -11 9 -3 17 -2 17 4
0 6 4 8 9 5 5 -4 20 -2 34 3 14 5 28 7 31 3 4 -3 24 -5 45 -3 32 2 39 -1 38
-15 -1 -9 5 -19 13 -21 12 -4 13 -3 1 5 -7 5 -11 14 -7 20 3 6 -1 15 -10 20
-15 8 -15 10 0 15 9 4 15 1 13 -6 -1 -7 3 -11 10 -10 7 2 10 -4 7 -15 -5 -15
-4 -15 10 2 8 10 19 15 24 12 6 -3 28 1 50 8 44 16 77 12 106 -13 11 -9 16
-11 13 -5 -9 15 16 25 34 13 8 -5 21 -9 29 -9 13 0 13 1 0 10 -10 7 -11 10 -2
10 7 0 15 -7 18 -15 4 -8 10 -15 16 -15 5 0 6 5 3 10 -3 6 -1 10 5 10 6 0 8 4
5 10 -3 5 -1 10 6 10 7 0 9 -10 7 -25 -4 -19 -2 -23 7 -15 6 5 29 9 51 9 64
-2 83 3 44 11 -30 6 -26 8 27 9 49 1 64 -3 72 -16 6 -10 11 -13 11 -8 0 6 10
16 21 24 19 11 21 11 16 -3 -5 -13 0 -14 26 -9 18 3 35 11 39 17 5 7 8 5 8 -6
0 -9 4 -20 10 -23 6 -4 7 1 3 12 -6 15 -4 16 9 5 12 -10 18 -10 23 -1 4 6 1
15 -6 20 -9 6 -10 9 -2 9 7 0 17 -8 22 -17 10 -17 10 -16 11 2 0 16 2 17 9 6
5 -8 7 -21 3 -29 -4 -11 -2 -13 8 -7 8 5 30 10 49 12 42 5 55 13 19 13 -15 0
-29 7 -33 18 -5 14 -4 15 6 4 18 -17 54 -15 73 4 9 8 16 10 16 4 0 -6 -7 -13
-15 -16 -8 -4 -15 -11 -15 -16 0 -6 7 -7 16 -4 9 4 13 2 8 -5 -4 -7 -1 -10 7
-7 8 3 15 14 17 26 2 12 7 20 12 17 5 -3 7 -12 3 -20 -6 -18 18 -20 36 -2 11
10 13 10 7 0 -5 -9 0 -13 13 -13 10 0 26 -3 35 -6 9 -3 16 -1 16 5 0 6 -12 11
-26 11 -14 0 -23 4 -19 10 7 12 36 2 53 -18 11 -14 12 -14 12 2 0 16 2 17 17
5 10 -8 14 -9 10 -2 -5 8 0 11 13 10 11 -1 20 -5 20 -9 0 -4 11 -8 25 -8 14 0
25 6 25 13 0 9 2 9 8 -1 11 -17 55 -25 49 -9 -2 7 -9 12 -14 12 -20 0 -22 11
-3 12 11 1 27 -8 36 -20 11 -15 18 -18 21 -10 3 9 10 10 23 3 10 -5 26 -7 36
-3 12 4 15 3 10 -5 -4 -7 -3 -12 3 -12 5 0 12 4 15 9 7 11 -20 22 -38 15 -8
-3 -17 -1 -21 5 -4 7 8 11 34 11 23 0 41 -4 41 -9 0 -5 9 -7 20 -4 12 3 29 -2
42 -13 12 -11 18 -13 14 -6 -9 14 8 16 34 2 15 -8 17 -6 12 13 -5 21 -5 21 15
-3 23 -27 21 -46 -5 -53 -12 -3 -10 -5 5 -6 13 -1 27 7 33 19 8 14 8 20 0 20
-6 0 -8 5 -5 10 4 6 15 8 26 5 10 -4 19 -2 19 3 0 5 14 9 30 10 58 4 65 5 77
14 8 7 10 3 6 -11 -3 -12 -1 -21 6 -21 6 0 11 4 11 9 0 5 11 11 24 13 16 3 23
1 20 -7 -4 -10 3 -10 30 -1 20 6 36 14 36 17 0 8 85 4 98 -5 6 -3 13 0 16 6 5
10 7 10 12 1 7 -15 74 -18 74 -3 0 19 50 10 73 -13 l22 -22 3 23 c4 25 32 31
32 6 0 -8 4 -13 9 -10 4 3 7 17 5 31 -2 20 1 24 10 16 7 -6 25 -9 41 -8 18 1
30 -3 31 -10 3 -25 6 -28 12 -13 5 11 16 14 42 9 19 -4 27 -7 18 -8 -10 0 -18
-5 -18 -11 0 -5 -16 -12 -36 -16 -25 -5 -32 -10 -25 -17 8 -8 14 -8 23 1 7 7
20 12 30 12 10 0 18 4 18 8 0 4 16 8 35 9 24 1 33 -3 28 -10 -4 -7 1 -6 10 1
22 18 84 9 103 -14 14 -18 14 -18 7 0 -5 15 -3 18 10 13 9 -3 17 -2 17 3 0 15
57 12 63 -2 3 -8 6 -6 6 4 1 15 -8 18 -61 17 -35 0 -89 1 -121 3 -31 2 -57 0
-57 -4 0 -5 -5 -8 -11 -8 -5 0 -8 4 -4 9 3 5 -3 17 -12 27 -17 17 -17 18 2 10
48 -19 75 -24 75 -14 0 6 6 6 15 -2 12 -10 15 -9 15 5 0 14 -6 16 -37 11 -27
-4 -32 -3 -18 4 29 13 63 12 68 -2 4 -10 6 -10 6 0 1 6 5 12 10 12 5 0 7 -9 4
-20 -4 -14 0 -20 12 -20 11 0 15 5 12 15 -4 8 -1 17 5 21 7 4 8 3 4 -4 -4 -7
-2 -12 4 -12 6 0 8 -5 5 -10 -9 -14 8 -13 23 2 9 9 12 9 12 0 0 -15 42 -16 57
-1 8 8 16 4 28 -14 9 -15 14 -30 12 -34 -3 -5 3 -9 13 -9 17 0 18 2 5 16 -8 9
-15 19 -15 23 0 9 34 -5 42 -17 5 -7 8 -4 8 7 0 12 -10 20 -30 24 -37 7 -32
16 10 17 25 1 30 -3 30 -21 0 -14 6 -23 15 -23 8 0 15 5 15 11 0 5 -4 7 -10 4
-5 -3 -10 1 -10 9 0 9 5 16 12 16 6 0 3 7 -8 15 -18 14 -17 14 10 5 16 -6 35
-9 43 -6 7 3 13 1 13 -5 0 -6 7 -8 16 -5 12 4 14 1 9 -14 -4 -11 -2 -20 4 -20
12 0 15 46 4 53 -5 2 -2 2 5 1 6 -2 12 3 12 11 0 8 7 15 16 15 14 0 14 -2 -1
-16 -13 -14 -14 -19 -3 -25 10 -7 10 -9 1 -9 -7 0 -13 -6 -13 -13 0 -9 11 -12
35 -9 19 2 35 9 35 14 0 6 8 8 19 5 10 -2 25 -1 33 4 12 6 15 4 14 -8 0 -10 8
-19 19 -21 17 -4 18 -2 6 12 -11 14 -11 16 3 16 9 0 16 -4 16 -10 0 -5 8 -10
18 -10 15 -1 15 -2 -2 -15 -11 -8 -17 -18 -13 -21 3 -4 13 1 22 10 17 17 65
22 65 7 0 -5 12 -11 27 -14 19 -3 32 1 44 14 20 23 29 24 29 4 0 -10 9 -15 28
-14 23 2 24 2 5 6 -28 5 -29 19 -4 33 28 14 31 13 31 -16 0 -14 4 -23 10 -19
6 4 8 11 5 16 -4 5 -1 9 4 9 6 0 11 9 11 20 0 11 -1 20 -3 20 -1 0 -17 -4 -35
-9 -25 -8 -32 -7 -29 2 2 7 12 11 21 11 9 -1 16 6 16 15 0 12 2 13 8 3 5 -8
16 -10 28 -6 10 4 16 4 12 -1 -4 -4 -3 -14 3 -22 7 -8 8 -13 1 -13 -17 0 -21
-38 -4 -45 8 -3 17 -3 20 0 3 3 0 5 -6 5 -7 0 -12 7 -12 15 0 8 5 15 12 15 6
0 9 -3 5 -6 -7 -7 17 -34 31 -34 5 0 9 7 9 15 0 8 -4 15 -8 15 -3 0 -9 13 -11
30 -5 31 14 48 36 32 6 -5 20 -8 31 -8 15 1 19 7 17 23 -2 13 1 23 6 23 5 0 9
-8 8 -17 -1 -14 5 -17 26 -15 22 3 27 0 22 -12 -6 -15 6 -20 43 -19 7 1 10 -3
7 -8 -3 -5 3 -9 12 -9 10 0 15 -3 11 -6 -8 -9 -97 27 -97 39 0 6 -3 7 -6 4 -4
-4 -1 -13 6 -22 7 -8 9 -15 5 -15 -4 0 -2 -6 4 -13 6 -8 8 -17 4 -20 -3 -4 -1
-7 5 -7 7 0 12 -5 12 -11 0 -6 -7 -8 -17 -4 -15 5 -16 4 -5 -7 11 -11 16 -10
28 6 10 14 11 22 3 27 -7 4 -5 8 5 12 9 4 16 3 16 -1 0 -4 11 -7 25 -7 14 0
25 3 25 7 0 4 15 2 32 -3 49 -14 64 -11 76 13 l11 23 0 -22 c1 -13 -4 -23 -10
-23 -5 0 -7 -5 -3 -11 4 -8 -1 -9 -17 -5 -13 3 -18 3 -11 0 19 -9 14 -24 -5
-18 -17 5 -17 5 0 -9 27 -22 21 -42 -12 -42 -16 0 -33 3 -37 8 -8 8 9 11 41 7
18 -2 17 0 -5 19 -21 18 -23 22 -10 32 13 9 13 10 0 6 -8 -2 -15 -11 -15 -20
0 -8 -4 -19 -9 -24 -5 -4 -6 -3 -2 5 4 6 3 12 -3 12 -5 0 -9 -12 -7 -27 1 -16
-1 -33 -6 -39 -13 -17 19 -26 35 -10 20 20 62 15 60 -7 -1 -12 4 -17 14 -13 8
3 25 6 38 6 21 0 23 3 16 23 -6 14 -16 21 -30 20 -27 -3 -26 0 4 33 14 15 25
21 25 15 0 -7 4 -9 10 -6 6 3 10 1 10 -4 0 -6 -10 -11 -22 -11 -21 0 -21 -1
-5 -18 15 -15 19 -15 27 -2 5 8 12 11 16 7 4 -4 -1 -14 -12 -22 -12 -9 -14
-14 -6 -15 7 0 11 -4 8 -9 -3 -5 3 -11 14 -14 13 -3 20 0 20 10 0 8 -5 11 -10
8 -6 -3 -10 -1 -10 4 0 6 8 11 18 12 9 0 12 3 5 5 -7 3 -10 11 -7 18 3 8 -2
16 -10 19 -9 4 -15 17 -15 29 1 15 3 17 6 7 2 -11 11 -15 23 -12 28 7 12 33
-21 33 -21 0 -27 -4 -23 -15 4 -8 2 -15 -4 -15 -5 0 -12 13 -14 30 -3 20 0 30
9 30 7 0 13 -5 13 -10 0 -14 53 -6 58 8 2 7 -2 10 -11 7 -18 -8 -40 19 -34 42
4 14 5 13 6 -4 1 -15 6 -21 15 -17 8 3 17 1 20 -5 4 -6 14 -7 24 -4 13 5 12 1
-5 -17 -18 -19 -19 -27 -11 -46 6 -13 15 -24 20 -24 11 0 10 14 -3 27 -17 17
-1 35 21 23 13 -7 20 -6 22 2 3 8 11 7 28 -2 23 -13 24 -13 5 -20 -11 -4 -28
-4 -37 1 -23 12 -48 12 -29 0 24 -15 5 -44 -24 -37 -14 4 -25 2 -25 -4 0 -5 4
-10 9 -10 5 0 8 -8 7 -17 0 -10 5 -18 12 -17 6 1 21 2 32 2 11 1 20 6 20 11 0
4 -11 6 -25 3 -15 -2 -25 0 -25 7 0 6 3 10 8 10 21 -4 32 3 33 19 1 11 4 9 9
-8 15 -47 8 -56 -48 -66 -8 -1 -17 -6 -20 -10 -4 -4 1 -4 11 -1 12 4 17 1 18
-11 0 -10 3 -12 6 -4 7 18 23 15 23 -5 0 -13 2 -15 8 -5 5 8 16 10 27 6 13 -5
16 -4 10 5 -6 10 -3 11 13 2 22 -11 82 3 82 20 0 4 7 6 15 3 17 -7 21 -44 4
-44 -6 0 -8 7 -5 16 4 9 1 14 -6 12 -6 -2 -13 -14 -15 -27 -2 -12 1 -20 6 -17
5 3 11 -1 15 -9 3 -8 11 -15 18 -14 10 0 10 2 1 6 -22 8 -14 25 10 21 12 -1
23 2 24 7 1 6 -5 9 -13 9 -8 -1 -14 2 -14 7 0 5 11 9 25 9 14 0 25 -4 25 -10
0 -6 9 -6 25 0 19 7 23 6 18 -5 -3 -10 1 -15 13 -16 49 -3 90 4 113 19 l26 16
-20 -23 c-14 -17 -16 -25 -7 -28 6 -3 10 -9 6 -14 -8 -13 -24 -11 -24 4 0 8
-17 12 -50 12 -27 0 -45 -2 -40 -3 13 -5 13 -32 0 -32 -6 0 -9 3 -8 8 3 16
-15 42 -30 42 -13 0 -13 -2 1 -18 16 -18 15 -19 -9 -32 -20 -11 -27 -11 -33
-2 -5 8 -19 11 -35 8 -17 -3 -29 0 -32 9 -3 8 -15 12 -29 9 -17 -3 -22 0 -21
14 1 14 -8 17 -61 17 -45 0 -63 -4 -63 -13 0 -7 -4 -10 -10 -7 -6 3 -7 -1 -4
-10 5 -11 2 -14 -9 -9 -9 3 -13 11 -11 19 3 7 -7 17 -25 23 -38 14 -41 5 -3
-9 25 -10 26 -12 7 -19 -16 -7 -17 -9 -3 -9 9 -1 29 -13 44 -28 25 -25 26 -27
8 -34 -10 -3 -22 -5 -26 -2 -5 2 -8 0 -8 -6 0 -6 -6 -9 -12 -7 -7 1 -10 1 -5
-1 4 -3 7 -11 7 -18 0 -8 4 -17 10 -20 6 -3 7 1 4 9 -3 9 -3 16 0 16 10 0 50
-24 58 -35 4 -5 10 -6 14 -3 6 7 -26 46 -33 41 -8 -7 -23 -2 -23 7 0 5 7 7 15
4 22 -9 38 5 25 21 -7 8 -9 19 -5 25 3 5 -2 10 -12 10 -15 0 -14 4 7 20 30 23
57 26 57 5 0 -18 -9 -19 -24 -4 -7 7 -10 3 -10 -16 0 -19 2 -23 8 -14 8 12 11
11 19 -1 9 -13 14 -7 11 12 0 4 7 5 17 1 16 -5 16 -5 0 8 -13 10 -15 18 -8 29
9 13 10 13 10 0 0 -13 1 -13 10 0 13 21 19 10 13 -23 -3 -15 -12 -27 -19 -27
-12 0 -12 -4 -2 -20 11 -16 10 -23 -6 -37 -17 -17 -18 -17 -12 2 5 16 1 21
-13 21 -19 0 -19 -2 -3 -28 19 -32 41 -43 56 -28 7 7 5 10 -7 10 -21 0 -22 16
-2 24 8 3 15 1 15 -4 0 -6 5 -10 11 -10 6 0 0 14 -12 31 l-22 31 41 -4 c23 -2
42 -1 42 2 0 3 9 6 20 6 11 0 20 -3 20 -6 0 -3 18 -6 40 -6 22 -1 37 2 34 7
-3 5 -1 9 5 9 5 0 14 -12 20 -27 8 -21 10 -22 7 -6 -2 13 0 23 5 23 5 0 9 -8
10 -17 1 -12 4 -10 9 7 4 14 8 20 9 14 1 -6 15 -11 31 -11 17 0 36 -5 42 -11
9 -9 2 -11 -28 -9 -32 2 -39 -1 -38 -15 1 -10 -6 -19 -15 -19 -37 -3 -42 -5
-52 -19 -8 -11 -9 -9 -3 10 4 14 8 30 10 35 2 6 -14 11 -36 11 -22 1 -38 -2
-35 -6 3 -4 -5 -10 -16 -13 -14 -4 -19 -2 -16 8 4 9 -4 12 -29 12 -19 -1 -34
-5 -34 -9 0 -8 15 -12 38 -9 6 1 12 -3 12 -9 0 -7 9 -9 23 -5 19 5 20 4 5 -5
-10 -6 -24 -10 -30 -9 -21 2 -58 -13 -58 -23 0 -5 6 -7 13 -4 6 2 31 10 55 17
23 6 42 17 42 25 0 17 17 18 23 2 4 -10 6 -10 6 0 1 6 6 12 11 12 6 0 5 -8 -2
-19 -7 -11 -15 -18 -19 -15 -4 2 -9 -5 -12 -16 -6 -22 8 -37 18 -20 3 5 11 10
16 10 15 0 -29 -43 -46 -46 -18 -3 -19 8 -3 24 9 9 9 12 1 12 -18 0 -25 -18
-18 -41 5 -16 13 -20 31 -16 14 2 27 0 30 -4 3 -5 -1 -9 -8 -9 -7 0 -23 -3
-35 -6 -16 -4 -23 0 -28 16 -6 18 -9 20 -17 9 -6 -10 -7 -6 -2 11 3 14 18 35
33 47 28 24 25 28 -11 14 -13 -5 -32 -12 -43 -16 -16 -5 -17 -8 -5 -15 8 -5
11 -13 6 -17 -4 -4 -14 0 -21 11 -8 10 -25 19 -39 20 -14 0 -26 5 -26 10 0 5
-6 3 -13 -3 -8 -6 -17 -9 -21 -6 -3 3 -2 0 4 -7 5 -6 25 -11 45 -10 19 1 35
-3 35 -8 0 -6 -4 -10 -10 -10 -5 0 -10 -5 -10 -11 0 -6 7 -8 16 -5 8 3 12 2 9
-4 -3 -6 -13 -10 -21 -10 -8 0 -14 -7 -14 -16 0 -8 -7 -22 -15 -30 -8 -9 -15
-11 -15 -6 0 5 3 12 7 16 4 3 12 22 19 41 10 31 10 35 -5 33 -9 -2 -19 -10
-23 -18 -6 -13 -7 -12 -7 2 -1 13 -60 58 -77 58 -12 0 23 -40 36 -41 8 -1 2
-4 -15 -8 -16 -4 -32 -4 -35 -1 -3 4 -13 10 -24 13 -12 5 -17 14 -13 27 3 11
0 20 -6 20 -7 0 -12 -10 -13 -22 0 -13 -4 -31 -8 -40 -6 -13 -4 -18 8 -18 9 0
16 -7 16 -15 0 -8 -5 -15 -11 -15 -5 0 -7 4 -4 10 3 5 0 7 -8 4 -10 -3 -18 5
-25 25 -6 16 -8 31 -6 34 3 3 -3 4 -13 4 -13 -2 -18 5 -17 25 0 32 -12 28 -18
-7 -3 -16 -1 -25 7 -25 7 0 16 -7 19 -16 10 -25 7 -27 -11 -13 -11 10 -14 10
-9 1 4 -6 3 -12 -2 -12 -12 0 -25 47 -17 60 3 5 1 12 -5 15 -6 4 -10 3 -9 -2
3 -18 -14 -53 -27 -53 -7 0 -16 -5 -20 -12 -4 -7 -3 -8 4 -4 7 4 12 2 12 -5 0
-6 9 -1 20 12 15 19 19 21 20 7 0 -9 -13 -28 -30 -41 -16 -14 -30 -31 -30 -37
0 -7 -8 -9 -21 -5 -13 4 -25 2 -29 -5 -6 -9 -15 -7 -36 6 -15 11 -25 14 -21 7
4 -6 1 -14 -5 -16 -7 -3 0 -6 16 -6 24 -1 27 -3 16 -16 -7 -8 -10 -21 -7 -29
3 -8 -4 -18 -19 -25 -13 -6 -24 -15 -24 -21 0 -15 8 -12 32 10 21 19 44 28 35
13 -11 -18 19 -29 47 -18 20 8 25 15 16 20 -7 4 -16 2 -20 -5 -6 -10 -14 -8
-34 6 -26 20 -33 39 -17 48 16 11 40 -5 34 -22 -4 -15 -3 -15 6 -2 6 9 7 18 1
24 -18 18 -10 25 21 16 33 -10 59 -4 60 14 0 6 4 2 9 -9 13 -31 11 -38 -10
-32 -21 5 -26 -8 -11 -32 7 -11 12 -8 25 12 21 32 12 77 -15 77 -22 0 -24 7
-6 23 13 14 47 14 67 2 8 -5 11 -4 6 3 -3 6 -2 13 4 17 9 6 15 -8 11 -29 -1
-5 5 -6 13 -3 9 4 17 -1 21 -13 6 -18 38 -21 63 -6 6 3 13 -3 17 -14 7 -22 35
-26 53 -8 9 9 12 9 12 -1 0 -13 -58 -41 -85 -41 -8 0 -15 9 -15 21 0 12 -4 17
-11 13 -6 -3 -9 -15 -6 -25 3 -11 -1 -20 -12 -22 -11 -3 -10 -5 5 -6 12 0 40
6 63 14 44 15 52 11 24 -11 -17 -13 -17 -14 0 -8 12 4 17 1 17 -11 0 -12 5
-15 19 -10 11 3 22 1 26 -5 7 -11 46 -14 44 -2 -4 21 3 23 22 6 16 -14 24 -16
38 -7 10 6 24 7 32 2 11 -6 16 -4 16 6 0 10 -11 15 -29 15 -15 0 -28 4 -28 10
0 5 7 7 15 4 10 -4 13 0 11 13 -3 15 3 19 34 21 28 2 39 -2 44 -14 8 -20 2
-29 -13 -19 -6 3 -9 11 -5 17 4 6 -3 8 -17 6 -12 -1 -25 -10 -27 -18 -5 -13
-3 -13 13 0 17 14 18 13 12 -2 -3 -10 -2 -20 4 -23 5 -4 7 -11 4 -16 -4 -5 -1
-9 4 -9 6 0 11 6 11 13 0 9 12 11 41 9 39 -4 40 -4 27 17 -7 12 -14 17 -16 11
-2 -5 -8 -10 -14 -10 -6 0 -5 6 2 15 9 11 16 12 25 5 14 -12 45 -3 45 12 0 6
-6 8 -14 5 -8 -3 -17 1 -20 10 -5 11 -2 14 10 9 8 -3 27 -6 40 -6 13 0 24 -4
24 -10 0 -5 -7 -6 -17 -3 -10 4 -14 2 -9 -5 3 -6 -3 -13 -14 -17 -14 -4 -20
-15 -19 -33 0 -26 1 -26 9 -5 11 26 55 57 69 49 5 -4 14 1 19 10 8 14 12 14
30 3 22 -14 29 -29 14 -29 -4 0 -13 5 -20 12 -9 9 -12 9 -12 0 0 -7 -9 -12
-20 -12 -11 0 -20 -4 -20 -10 0 -6 18 -7 45 -3 41 5 45 4 45 -16 0 -17 5 -21
23 -19 12 2 28 7 35 11 7 5 12 4 12 -2 0 -6 12 -11 26 -11 l25 0 -2 124 c-2
108 -4 123 -18 119 -14 -4 -14 -3 -1 9 18 15 23 55 9 63 -5 4 -9 14 -8 23 0
14 2 13 9 -3 8 -19 9 -19 9 3 1 23 -18 29 -36 11 -8 -8 -13 -8 -18 1 -9 15 -1
22 29 24 22 1 26 6 26 33 0 17 -4 35 -10 38 -5 3 -10 11 -10 16 0 6 5 7 10 4
15 -9 12 78 -2 94 -9 10 -10 12 -1 7 9 -5 12 49 11 234 0 144 -4 240 -10 240
-5 0 -6 -5 -3 -10 3 -6 -3 -10 -15 -10 -18 0 -19 2 -8 13 7 8 20 16 28 20 10
3 7 6 -7 6 -13 1 -23 -3 -23 -9 0 -5 -6 -7 -14 -4 -8 3 -17 0 -22 -7 -4 -8 -3
-10 4 -5 8 5 10 1 5 -9 -3 -9 -9 -12 -12 -7 -3 5 -30 8 -59 6 -31 -1 -50 1
-47 7 4 5 -2 9 -12 9 -14 0 -15 2 -4 9 8 5 9 11 3 15 -12 7 -24 -22 -16 -37 5
-9 4 -9 -5 -1 -14 13 -64 6 -55 -7 3 -5 0 -9 -5 -9 -10 0 -16 21 -12 43 0 4
-11 8 -26 8 -16 1 -32 2 -38 4 -5 1 -14 3 -18 3 -5 1 -1 9 7 18 18 18 21 44 5
44 -6 0 -9 -7 -6 -15 7 -17 -9 -30 -18 -15 -8 13 -25 13 -25 -1 0 -5 4 -7 10
-4 6 3 10 1 10 -4 0 -15 -37 -14 -43 2 -3 7 -6 5 -6 -5 -1 -12 6 -18 19 -18
11 0 20 -4 20 -8 0 -10 -79 0 -98 12 -8 5 -10 2 -5 -11 6 -16 5 -16 -9 -5 -13
10 -22 11 -38 2 -12 -6 -24 -9 -28 -6 -3 3 0 6 6 6 17 0 15 17 -2 23 -8 3 -13
-1 -12 -11 1 -14 -11 -17 -69 -19 -70 -2 -123 16 -110 37 3 6 -1 7 -10 4 -9
-4 -14 -13 -11 -21 4 -9 2 -11 -7 -6 -20 13 -41 13 -49 0 -5 -8 -8 -6 -8 7 0
16 -2 17 -17 5 -15 -13 -16 -12 -8 6 27 66 47 135 54 191 4 35 10 67 14 70 3
3 19 7 36 8 40 2 48 12 16 20 -14 4 -23 11 -20 16 4 6 18 2 35 -10 29 -21 90
-28 90 -10 0 6 -11 8 -25 4 -14 -3 -25 -2 -25 3 0 6 -10 14 -22 20 l-23 10 23
12 c18 10 27 8 52 -11 16 -12 30 -28 30 -35 0 -8 9 -11 28 -8 15 3 135 10 267
16 132 7 251 13 265 14 14 1 37 3 53 3 l27 2 0 156 0 156 -22 -8 c-13 -4 -56
-8 -96 -9 l-74 -2 -16 33 c-18 40 -29 43 -41 12 -8 -22 -8 -22 -19 -3 -5 11
-10 24 -10 28 -1 20 -12 18 -12 -1 0 -15 -5 -20 -15 -16 -10 4 -15 0 -15 -13
0 -13 -8 -19 -27 -21 -33 -3 -42 -10 -24 -21 8 -5 9 -11 3 -15 -5 -3 -12 1
-16 9 -6 17 -27 21 -24 4 4 -16 -67 -15 -86 1 -9 7 -16 8 -16 2 0 -5 7 -15 15
-22 9 -7 13 -15 11 -18 -3 -2 -13 3 -22 13 -16 16 -18 16 -30 -7 -9 -15 -13
-18 -14 -8 0 9 6 22 12 28 10 10 10 15 -2 22 -10 6 -16 5 -19 -3 -6 -18 -28
-37 -35 -30 -3 4 -6 16 -6 27 0 17 -2 18 -10 6 -15 -24 -20 -6 -10 31 6 18 9
70 9 114 -1 44 -4 69 -6 56 -4 -22 -8 -23 -54 -19 -28 3 -49 1 -49 -5 0 -5
-10 -3 -23 5 -12 9 -39 17 -60 20 -39 4 -45 -4 -28 -47 15 -36 2 -46 -29 -23
-34 24 -69 19 -112 -17 -21 -18 -34 -22 -55 -16 -30 8 -35 31 -19 81 6 19 5
22 -3 14 -7 -6 -33 -9 -61 -6 -36 3 -50 1 -50 -8 0 -10 -3 -10 -14 -1 -12 10
-15 6 -19 -26 -3 -28 -4 -25 -3 12 l1 50 -225 12 c-622 32 -1540 47 -1540 24
0 -20 -74 -20 -118 -1 -33 15 -92 24 -229 35 -102 8 -193 15 -204 15 -12 0
-17 4 -13 11 3 6 -6 3 -22 -7 -28 -18 -29 -18 -14 0 8 11 41 39 74 63 32 24
54 43 48 43 -5 0 -38 -21 -72 -46 -59 -43 -63 -44 -76 -27 -14 17 -14 16 -4
-4 l11 -23 -266 0 -266 0 20 29 c12 16 21 31 21 33 0 1 -87 1 -192 -2 l-193
-5 -20 -32 c-17 -27 -26 -32 -57 -33 -36 0 -49 12 -28 25 5 3 14 14 19 23 8
16 -4 17 -152 15 -161 -1 -162 -1 -189 -28 l-26 -27 -144 3 c-79 1 -161 -2
-183 -6 -81 -15 -150 -37 -162 -53 -32 -40 4 -256 48 -294 11 -10 17 -23 14
-29 -6 -8 -10 -7 -16 2 -7 12 -9 12 -9 0 0 -11 -3 -11 -15 -1 -8 7 -21 10 -29
7 -8 -3 -20 1 -26 9 -7 8 -8 14 -3 14 6 0 10 14 11 31 0 17 6 36 12 44 22 27
-35 58 -68 36 -11 -7 -11 -11 2 -24 20 -19 20 -25 2 -43 -19 -18 -27 -18 -20
1 4 9 0 15 -10 15 -10 0 -13 6 -10 15 5 11 -1 15 -20 15 -14 0 -26 5 -26 11 0
6 9 8 20 4 16 -5 20 -2 20 14 0 12 -4 21 -10 21 -5 0 -10 -5 -10 -10 0 -7 -6
-7 -19 0 -14 7 -22 7 -26 -1 -4 -6 -13 -8 -21 -5 -7 3 -16 1 -19 -4 -9 -14
-35 0 -36 19 0 12 -2 12 -8 -4 -8 -19 -8 -19 -19 0 -17 31 -27 9 -27 -58 0
-36 -5 -62 -11 -64 -8 -2 -11 8 -10 29 1 22 -4 37 -16 46 -9 7 -15 19 -12 27
4 8 1 15 -5 15 -9 0 -15 -33 -14 -78 1 -6 -4 -12 -9 -12 -6 0 -8 -6 -5 -13 4
-10 -4 -14 -24 -14 -16 0 -29 4 -29 9 0 4 -9 8 -20 8 -11 0 -20 -6 -20 -13 0
-18 -28 -18 -34 0 -3 8 -1 11 4 8 6 -3 10 1 10 9 0 9 5 16 11 16 6 0 8 7 5 16
-3 8 -1 24 4 34 7 13 7 21 0 25 -5 3 -11 -4 -11 -17 -1 -17 -3 -18 -6 -6 -2
10 -9 18 -14 18 -6 0 -8 -8 -5 -18 4 -12 -1 -26 -14 -37 -18 -16 -20 -17 -20
-1 0 14 -4 14 -30 -6 -16 -12 -30 -29 -30 -37 -1 -9 -8 0 -17 19 -13 28 -17
31 -21 16 -2 -10 0 -21 5 -25 6 -3 13 -19 17 -36 l7 -30 -19 28 c-11 16 -22
24 -26 19 -3 -6 -2 -13 3 -16 5 -3 7 -15 4 -26 -3 -11 -10 -17 -15 -14 -5 3
-7 12 -4 20 3 8 0 11 -9 8 -10 -4 -12 0 -8 15 5 19 3 20 -25 10 -17 -6 -33
-18 -35 -27 -2 -9 -3 8 -2 38 1 30 -4 67 -12 83 -12 23 -17 26 -33 17 -11 -6
-19 -14 -19 -18 3 -19 -2 -29 -16 -29 -8 0 -15 4 -15 9 0 5 -9 7 -19 3 -13 -4
-23 0 -30 12 -10 17 -10 17 -11 1 0 -10 -4 -18 -9 -18 -5 0 -7 -10 -5 -23 4
-15 1 -13 -9 8 -11 25 -11 31 0 33 17 5 17 18 -2 26 -8 3 -15 0 -15 -6 0 -7
-5 -6 -15 2 -12 10 -15 9 -15 -4 0 -10 -5 -14 -11 -11 -6 4 -8 13 -5 21 3 8 0
14 -6 14 -6 0 -8 -11 -4 -31 3 -17 1 -40 -5 -50 -8 -15 -7 -25 2 -37 12 -16
12 -16 -5 -1 -14 13 -16 21 -8 36 9 16 8 19 -6 18 -10 0 -23 -4 -30 -9 -6 -4
-12 -4 -12 1 0 4 -4 3 -8 -3 -4 -6 -19 -14 -34 -18 -21 -5 -30 -1 -42 16 -9
13 -16 16 -16 9 0 -11 -3 -11 -17 0 -14 12 -16 12 -11 -1 7 -19 -12 -38 -35
-34 -9 1 -20 -2 -23 -8 -4 -7 -9 -6 -14 2 -4 6 -30 12 -58 13 -36 0 -52 5 -52
14 0 7 -7 13 -16 13 -15 0 -15 -2 0 -25 9 -14 12 -25 8 -25 -5 0 -18 11 -28
25 -23 31 -34 32 -34 3 0 -12 -3 -19 -6 -15 -14 14 -31 -20 -26 -52 3 -24 1
-32 -7 -27 -6 4 -11 18 -11 31 0 25 -23 55 -43 55 -6 0 -2 -7 9 -15 10 -8 15
-15 10 -15 -5 0 -3 -7 4 -15 7 -9 10 -18 7 -21 -8 -9 -47 19 -53 38 -3 10 -10
18 -15 18 -6 0 -7 9 -4 21 5 15 4 19 -4 15 -8 -5 -8 0 -1 20 6 15 9 27 8 28
-37 19 -57 28 -73 30 -20 3 -34 26 -16 26 6 0 7 8 4 17 -6 15 -7 15 -13 -3 -6
-17 -10 -15 -38 16 -18 19 -32 30 -32 24 0 -5 6 -16 12 -23 11 -11 10 -13 -2
-9 -17 5 -24 39 -16 74 6 21 9 22 26 12 12 -8 18 -19 15 -29 -9 -27 4 -47 27
-41 20 5 20 6 3 19 -16 11 -17 13 -3 13 9 0 20 -4 23 -10 3 -5 11 -10 17 -10
7 0 6 5 -2 15 -9 11 -9 21 4 46 9 18 16 39 16 48 0 9 3 12 8 6 4 -7 19 -4 42
8 32 18 18 19 -22 2 -11 -4 -18 -3 -18 4 0 6 5 11 10 11 6 0 10 5 10 12 0 17
-38 -21 -46 -46 -4 -11 -12 -24 -18 -28 -6 -4 -12 -12 -12 -18 -1 -5 -2 -13
-3 -17 -2 -14 -41 31 -41 49 0 10 -7 18 -16 18 -15 0 -16 16 -12 153 5 142 7
158 37 227 17 41 36 100 42 132 6 32 15 56 18 53 16 -9 33 13 26 35 -6 18 -9
20 -17 9 -8 -12 -9 -11 -5 1 2 10 16 15 38 15 35 0 51 9 62 35 4 12 6 12 6 -2
1 -11 6 -15 16 -12 8 4 13 10 10 14 -3 4 3 11 12 15 10 3 19 1 21 -4 2 -6 11
-3 20 8 10 10 37 29 62 42 25 13 48 29 53 34 4 6 13 3 22 -9 17 -23 19 -18 5
18 -6 17 -6 26 0 26 6 0 10 -7 10 -15 0 -8 4 -15 9 -15 5 0 2 22 -7 49 -10 27
-20 45 -23 40 -3 -5 -13 7 -22 26 -12 25 -25 37 -46 41 -16 4 -42 20 -56 36
-30 33 -29 47 1 20 23 -21 55 -25 47 -6 -3 8 -14 14 -24 14 -10 0 -19 4 -19
10 0 5 7 7 15 4 9 -4 15 0 15 7 0 11 3 11 10 -1 7 -10 10 -11 10 -2 0 8 8 10
24 6 19 -5 25 -1 30 21 4 15 9 25 12 22 3 -3 19 -1 35 5 22 7 33 7 44 -2 17
-14 20 -50 5 -50 -5 0 -10 5 -10 11 0 6 -7 9 -15 5 -8 -3 -15 -1 -15 4 0 6 5
10 10 10 6 0 10 4 10 10 0 5 -16 2 -35 -8 -23 -11 -35 -24 -35 -39 0 -16 5
-20 20 -16 11 3 23 9 26 14 3 5 10 9 15 9 5 0 3 -10 -6 -23 -13 -21 -13 -23 5
-24 12 -1 20 6 23 20 4 18 4 18 6 -5 0 -16 -6 -32 -18 -40 -10 -7 -21 -24 -25
-38 -7 -24 -7 -24 18 5 36 42 32 21 -4 -25 -17 -21 -30 -41 -30 -45 0 -11 59
39 59 51 1 7 12 19 25 27 23 15 23 15 22 -24 -1 -32 -7 -43 -29 -58 -23 -15
-25 -20 -13 -24 11 -4 16 -19 16 -46 0 -22 4 -42 8 -45 5 -3 8 15 7 41 -1 26
-8 49 -16 54 -12 7 -12 9 0 9 8 0 20 8 27 17 7 10 16 15 20 10 4 -4 -1 -14
-12 -21 -10 -8 -15 -18 -11 -23 9 -9 46 35 47 55 0 6 -10 12 -22 13 -13 0 -17
3 -11 6 8 3 11 14 7 27 -7 28 18 51 43 41 12 -5 14 -9 6 -12 -17 -6 -17 -24 0
-22 27 3 52 -2 42 -9 -5 -4 -11 -25 -12 -47 l-2 -40 11 42 c8 33 16 42 37 46
32 6 38 2 21 -18 -7 -9 -10 -19 -6 -22 6 -7 21 9 28 29 2 4 13 5 25 2 18 -5
20 -10 13 -29 -6 -16 -5 -25 3 -28 8 -3 4 -11 -11 -22 -30 -22 -28 -37 4 -24
15 5 29 7 32 4 3 -3 0 -5 -6 -5 -7 0 -12 -5 -12 -10 0 -6 6 -9 13 -8 7 2 11
-7 10 -24 -1 -16 2 -28 8 -28 5 0 9 9 9 20 0 10 6 25 13 32 8 7 12 21 9 31 -3
11 1 23 9 27 11 7 10 13 -5 29 -12 13 -17 30 -14 50 3 21 1 28 -9 24 -7 -3
-13 -1 -13 5 0 15 37 21 49 9 6 -6 11 -19 11 -28 0 -9 12 -24 26 -34 14 -9 23
-19 20 -22 -3 -4 -15 2 -27 12 -17 16 -22 17 -29 5 -6 -9 -2 -20 12 -32 23
-19 38 -23 38 -9 0 5 9 11 21 14 15 4 19 2 15 -8 -4 -11 0 -12 21 -4 25 9 42
0 43 -22 0 -7 30 -8 30 0 0 14 -44 49 -56 44 -12 -4 -13 2 -9 27 3 19 8 37 11
41 2 4 -5 14 -17 22 -19 14 -20 15 -2 19 15 4 13 7 -12 19 -56 26 -78 65 -30
53 19 -5 25 -2 25 9 0 9 5 19 11 23 7 4 10 1 7 -7 -3 -8 2 -20 10 -28 14 -14
23 -9 36 24 2 6 12 5 26 -3 20 -12 21 -12 15 9 -7 20 -5 21 26 15 22 -4 30 -3
24 3 -6 6 -45 11 -87 12 -82 2 -89 7 -81 52 6 30 23 37 23 10 1 -13 29 49 30
64 0 1 -11 -2 -25 -7 -19 -7 -25 -6 -25 5 0 7 5 17 10 20 5 3 10 1 10 -6 0 -7
9 -4 23 8 12 12 31 23 42 26 15 4 14 5 -7 6 -15 0 -30 -3 -33 -9 -3 -5 -15
-10 -26 -10 -10 0 -19 -4 -19 -10 0 -16 -37 -11 -44 6 -3 9 -6 31 -6 50 0 22
-4 33 -10 29 -6 -4 -9 -22 -5 -42 5 -35 5 -35 -25 -30 -17 4 -30 2 -30 -3 0
-6 -7 -10 -15 -10 -8 0 -15 5 -15 10 0 6 -8 10 -17 10 -16 1 -62 28 -56 33 1
1 0 12 -3 24 -4 13 -11 20 -20 16 -8 -3 -14 0 -14 6 0 6 7 11 15 11 8 0 15 7
15 15 0 8 -4 15 -10 15 -5 0 -10 -5 -10 -11 0 -8 -4 -8 -15 1 -12 10 -15 7
-21 -15 -4 -15 -2 -31 5 -38 8 -8 11 -8 11 1 0 6 6 9 13 6 9 -3 12 -16 9 -35
-3 -19 -8 -26 -12 -19 -4 6 -9 10 -12 8 -3 -1 -17 12 -32 30 -16 18 -37 32
-49 32 -16 0 -18 -3 -8 -9 8 -5 9 -11 3 -15 -6 -3 -13 -2 -16 3 -3 4 -25 5
-48 1 -24 -5 -45 -6 -47 -4 -2 2 2 4 10 4 12 0 11 2 -1 10 -13 9 -13 11 0 20
19 12 33 13 26 1 -3 -5 6 -8 19 -8 32 0 31 3 -4 21 -16 9 -32 28 -37 43 -4 15
-8 31 -9 36 -2 4 -4 10 -5 15 -2 4 -4 19 -4 35 -2 28 8 37 17 15 3 -7 6 -3 6
10 1 19 -3 22 -21 17 -18 -6 -20 -4 -13 11 4 11 10 27 12 37 4 11 11 16 20 13
8 -3 19 -6 24 -6 4 0 6 -7 3 -15 -5 -11 1 -15 22 -15 23 0 26 -2 14 -10 -10
-6 -11 -10 -2 -10 6 0 12 -7 12 -15 0 -8 4 -15 9 -15 5 0 12 -8 14 -17 3 -10
3 2 0 26 -4 32 -3 42 5 37 7 -4 12 -14 12 -22 0 -8 9 -14 19 -14 11 0 21 -6
24 -12 2 -7 7 -10 11 -6 10 8 -41 88 -71 111 -26 21 -32 60 -8 51 8 -4 15 -13
15 -21 0 -12 3 -13 14 -4 11 10 15 8 19 -6 2 -11 9 -1 17 28 9 32 18 45 27 42
8 -3 11 -13 8 -24 -5 -14 -2 -17 9 -13 19 7 22 -16 4 -34 -18 -18 3 -14 24 5
17 15 18 14 18 -15 0 -18 5 -32 10 -32 17 0 11 58 -6 68 -12 7 -15 17 -10 36
8 32 26 35 19 4 -4 -21 -3 -22 7 -4 10 15 14 16 21 5 7 -11 9 -10 9 3 0 23
-49 36 -61 17 -6 -9 -9 3 -9 35 0 40 2 46 14 37 7 -6 22 -8 32 -4 17 6 18 5 4
-12 -14 -17 -14 -18 8 -6 24 13 30 3 10 -17 -9 -9 -9 -12 0 -12 7 0 16 10 21
22 7 20 8 20 15 3 4 -10 2 -21 -3 -24 -6 -4 -6 -12 -1 -21 9 -13 10 -13 10 0
0 19 37 43 45 30 3 -6 12 -10 18 -10 8 0 8 3 2 8 -5 4 -11 18 -13 32 -1 13 -7
27 -14 31 -6 4 -7 12 -2 20 15 25 14 49 -1 49 -20 0 -18 10 4 38 22 26 31 28
31 7 0 -15 10 -19 44 -15 16 1 18 -3 13 -29 -8 -39 -2 -39 18 -1 9 17 20 30
26 30 5 0 3 -10 -5 -22 -20 -29 -21 -49 -1 -42 11 4 13 2 9 -9 -3 -8 0 -18 7
-23 8 -4 10 -3 5 4 -5 8 -2 10 8 6 9 -3 13 -10 10 -15 -9 -15 23 -10 36 6 11
13 10 20 -1 41 -8 15 -9 28 -4 32 6 4 16 15 23 24 12 15 12 20 -1 33 -9 8 -20
15 -25 15 -19 0 -19 26 0 50 16 20 21 21 29 9 7 -12 9 -12 10 1 0 8 2 23 4 33
3 18 -10 23 -20 7 -10 -16 -33 12 -27 33 2 10 7 15 10 12 3 -3 16 4 28 16 13
12 37 22 53 23 34 1 31 10 -11 32 l-30 16 31 25 c17 14 28 30 25 34 -3 5 2 12
10 15 9 3 16 14 16 23 0 9 6 23 13 30 10 11 9 14 -1 18 -6 3 -9 10 -6 15 4 7
2 8 -4 4 -7 -4 -12 -2 -12 5 0 8 -3 9 -13 0 -8 -6 -18 -7 -22 -3 -5 4 -5 -1
-2 -11 4 -10 7 -21 7 -25 0 -3 7 3 15 14 14 18 15 18 12 -4 -2 -12 -13 -29
-25 -38 -23 -16 -32 -41 -10 -28 7 4 2 -7 -11 -25 -14 -20 -29 -30 -38 -27 -8
3 -12 2 -9 -2 2 -4 1 -14 -3 -21 -7 -11 -13 -11 -32 -1 l-23 13 23 9 24 8 -21
23 c-12 13 -22 27 -22 33 0 5 4 2 10 -6 5 -8 11 -12 13 -10 9 10 15 90 6 84
-5 -3 -9 -16 -9 -30 0 -20 -5 -24 -30 -24 -16 0 -30 3 -30 8 0 4 -12 8 -27 9
-15 0 -35 11 -45 23 -10 12 -18 18 -18 14 1 -15 24 -40 43 -47 11 -4 15 -12
11 -19 -6 -9 -9 -9 -12 0 -2 7 -10 12 -17 12 -8 0 -20 9 -28 20 -8 11 -17 17
-20 13 -4 -3 -1 -13 6 -21 10 -13 9 -15 -5 -9 -12 4 -18 2 -18 -8 0 -19 -14
-19 -30 0 -9 11 -9 15 -1 15 8 0 7 7 -3 22 -16 22 -21 69 -10 81 10 10 34 -4
34 -20 0 -12 3 -12 16 2 12 11 25 14 43 10 34 -9 36 -12 21 -30 -11 -13 -10
-14 4 -9 11 4 19 -1 26 -17 8 -19 9 -14 4 21 -3 25 -10 50 -16 55 -5 6 -36 10
-68 10 -33 0 -60 3 -60 8 0 4 -5 7 -11 7 -6 0 -9 -6 -6 -14 7 -19 -15 -37 -32
-27 -8 5 -11 17 -6 30 4 15 2 21 -9 21 -10 0 -17 -15 -22 -45 -5 -39 -10 -45
-30 -45 -25 0 -42 18 -28 29 5 3 15 17 21 31 l12 25 1 -25 1 -25 10 24 c7 17
6 27 -2 32 -6 4 -8 12 -5 18 8 13 36 15 36 3 0 -5 7 -9 15 -9 11 0 12 4 4 14
-11 12 -5 17 14 14 4 0 7 4 7 9 0 6 -7 10 -16 10 -12 0 -15 7 -12 25 3 14 1
25 -3 25 -5 0 -16 -11 -25 -25 -9 -14 -23 -25 -30 -25 -8 0 -14 -5 -14 -11 0
-15 -43 -7 -48 10 -3 10 1 12 18 8 23 -6 50 12 50 32 0 7 -47 11 -140 11 -118
0 -140 -2 -140 -15 0 -8 -5 -15 -11 -15 -5 0 -7 -5 -4 -10 8 -13 -15 -9 -31 5
-8 7 -9 14 -2 23 7 8 7 12 -1 12 -6 0 -18 -11 -27 -25 -13 -20 -14 -28 -4 -39
6 -8 18 -12 26 -9 8 3 14 0 14 -6 0 -14 -16 -14 -42 0 -16 8 -19 17 -14 39 4
24 2 28 -11 23 -11 -4 -14 -2 -9 5 9 15 -86 14 -96 -2 -6 -8 -8 -8 -8 1 0 17
-120 16 -120 -1 0 -7 -3 -6 -9 2 -6 10 -10 10 -21 -3 -7 -8 -23 -15 -35 -15
-13 0 -26 -6 -28 -12 -3 -7 -6 -3 -6 8 -1 12 -8 25 -17 28 -25 10 -86 7 -79
-4z m911 -330 c8 0 14 8 15 18 0 10 3 12 6 5 2 -7 11 -13 19 -13 8 0 14 -5 14
-11 0 -5 -4 -7 -10 -4 -5 3 -10 2 -10 -4 0 -17 22 -24 31 -10 7 11 9 11 9 1 0
-9 7 -11 21 -7 19 6 21 4 16 -14 -3 -13 1 -24 10 -30 11 -6 14 -16 9 -35 -7
-30 -36 -35 -56 -10 -8 8 -23 20 -34 26 -17 9 -19 8 -8 -3 21 -23 15 -39 -11
-26 -17 8 -22 17 -19 34 6 30 -20 28 -28 -2 -6 -19 -7 -19 -25 4 -11 13 -33
31 -48 41 l-28 18 30 4 c17 3 31 0 31 -4 0 -14 35 -4 36 10 1 6 3 20 4 30 2
16 3 16 7 0 2 -10 11 -18 19 -18z m-453 -676 c-4 -10 0 -12 12 -8 14 6 16 3
11 -17 -3 -13 -3 -18 0 -11 8 17 24 15 24 -3 0 -9 6 -12 15 -9 19 8 19 9 -5
-65 -20 -61 -97 -201 -111 -201 -12 0 -19 114 -9 160 5 25 9 62 10 83 0 26 4
37 15 37 11 0 14 -7 10 -27 l-6 -28 16 29 c12 20 14 31 6 39 -16 16 -14 47 3
41 8 -3 12 -12 9 -20z m-79 -85 c12 10 13 6 7 -26 -6 -39 -7 -136 -1 -208 1
-22 -3 -53 -9 -70 -11 -27 -13 -28 -23 -12 -5 10 -8 27 -5 37 2 10 -4 31 -15
47 l-20 28 7 -30 c3 -16 9 -39 12 -50 4 -13 -7 -7 -32 20 -22 22 -33 41 -27
43 23 7 11 22 -13 16 -30 -7 -34 12 -5 21 11 3 20 11 20 16 0 5 -14 2 -31 -6
-20 -11 -29 -21 -25 -31 3 -9 6 -27 6 -41 0 -15 3 -23 7 -20 3 4 16 -7 28 -23
12 -16 24 -28 26 -26 2 2 9 -2 16 -9 10 -11 7 -17 -14 -30 -25 -17 -26 -16
-37 1 -6 11 -11 21 -11 24 -1 3 -9 21 -17 40 -14 29 -17 31 -17 13 -1 -13 -5
-23 -11 -23 -13 0 -13 57 -1 65 5 3 7 21 4 41 -5 31 -3 35 13 33 27 -3 54 11
54 28 0 12 -3 12 -16 -2 -19 -19 -32 -12 -16 8 7 8 9 17 5 20 -3 4 3 7 15 7
15 0 22 6 22 19 0 26 10 51 21 51 5 0 9 -8 9 -17 0 -15 2 -16 10 -3 5 8 7 24
4 35 -8 26 1 17 20 -20 14 -26 16 -27 16 -8 0 12 -4 25 -10 28 -5 3 -10 11
-10 17 0 7 6 6 15 -2 11 -9 18 -10 29 -1z m182 -5 c-3 -8 1 -22 9 -30 21 -21
19 -32 -7 -36 -12 -2 -23 -8 -25 -14 -2 -7 8 -9 29 -6 l33 5 -36 -44 c-30 -37
-33 -45 -19 -45 10 0 17 4 14 7 -2 4 0 10 6 14 5 3 10 -1 10 -9 0 -10 6 -13
15 -10 8 4 21 1 29 -5 7 -6 16 -8 19 -4 4 3 7 1 7 -5 0 -7 8 -12 18 -12 10 0
22 -12 29 -30 9 -25 9 -30 -3 -30 -8 0 -14 6 -14 13 0 27 -46 40 -120 35 -79
-6 -89 -11 -70 -33 13 -15 12 -16 -59 -72 -14 -11 -13 -12 7 -13 12 0 22 5 22
12 0 6 7 3 15 -8 14 -19 14 -19 15 2 0 11 10 30 23 42 18 17 26 19 35 10 10
-10 15 -10 22 2 5 8 12 11 17 7 4 -5 3 -11 -3 -15 -7 -4 -8 -15 -3 -27 4 -11
8 -14 8 -6 1 8 3 12 6 9 8 -7 -5 -38 -16 -38 -5 0 -9 6 -9 13 0 7 -6 21 -13
31 -11 14 -18 16 -32 9 -12 -7 -14 -13 -6 -17 6 -4 11 -2 11 5 0 8 4 8 15 -1
18 -15 20 -34 3 -23 -7 4 -21 9 -32 10 -16 3 -17 1 -5 -13 12 -15 12 -18 0
-22 -7 -2 -23 -15 -34 -28 -11 -13 -26 -24 -32 -24 -6 0 -25 -16 -41 -35 -35
-43 -58 -47 -44 -9 9 22 34 55 42 55 2 0 13 2 26 5 23 7 31 24 10 24 -7 0 -19
4 -27 9 -12 8 -12 16 3 55 10 25 27 53 39 61 11 8 18 18 14 21 -3 4 11 40 33
82 22 41 42 90 46 108 3 19 11 34 16 34 6 0 7 -7 4 -16z m-416 -764 c0 -5 -9
-12 -20 -15 -11 -3 -20 -11 -20 -16 0 -6 8 -5 20 1 11 6 25 8 30 5 11 -7 14
-58 4 -68 -3 -3 -7 -27 -9 -54 -3 -47 -29 -128 -47 -148 -7 -8 -12 23 -11 80
0 11 1 78 2 149 l1 129 25 -27 c14 -15 25 -31 25 -36z m3962 -758 c-1 -8 6
-11 20 -7 29 6 58 -15 54 -40 -1 -10 -13 -20 -25 -22 -13 -2 -20 1 -16 7 4 6
-1 7 -10 3 -10 -3 -20 0 -25 6 -5 9 -9 6 -13 -9 -5 -19 -3 -21 20 -16 18 5 23
3 17 -5 -5 -9 -2 -10 11 -6 16 7 17 6 1 -17 -19 -30 -20 -37 -3 -33 6 1 11 -3
10 -10 -1 -6 4 -14 13 -17 12 -4 12 -2 4 14 -13 25 -13 27 5 34 12 4 14 0 9
-22 -4 -21 -3 -24 5 -12 6 8 11 11 11 5 0 -5 -12 -23 -26 -40 -22 -27 -24 -27
-13 -5 12 24 11 25 -8 8 -11 -10 -26 -18 -34 -18 -12 0 -11 -2 1 -10 12 -8 11
-10 -7 -10 -27 0 -21 26 8 35 10 4 19 10 19 15 0 6 -10 6 -24 0 -31 -12 -41
-1 -16 17 24 17 23 42 -2 61 -11 8 -15 19 -11 30 7 16 6 16 -10 0 -17 -16 -19
-16 -37 0 -28 23 -25 37 13 61 34 22 64 23 59 3z m801 -11 c43 -10 81 -21 85
-25 3 -4 1 -15 -6 -26 -9 -15 -8 -28 5 -64 10 -25 14 -48 11 -52 -4 -3 -24 12
-45 34 -47 49 -94 61 -173 42 -30 -7 -71 -13 -90 -14 -19 -1 -48 -5 -63 -10
-46 -14 -50 5 -12 62 25 36 45 54 68 61 52 15 137 12 220 -8z m-1830 -58
c-217 -2 -343 -7 -343 -13 0 -6 101 -11 273 -12 l272 -3 -274 -2 -273 -3 4
-40 c2 -22 0 -40 -4 -40 -5 0 -8 25 -8 55 l0 54 -127 4 c-71 1 86 3 347 2 322
0 365 -1 133 -2z m160 -110 c-214 -2 -343 -7 -343 -13 0 -6 125 -11 333 -13
224 -1 181 -2 -133 -3 -256 0 -419 2 -362 3 103 4 138 19 60 26 -24 2 144 3
372 3 399 -1 402 -1 73 -3z m935 -147 c-26 -7 -54 -19 -63 -26 -12 -10 -71
-16 -198 -22 -100 -4 -261 -12 -357 -16 -96 -5 -177 -6 -180 -5 -17 14 60 21
357 32 286 11 343 15 382 31 25 10 60 19 76 19 25 0 22 -3 -17 -13z m-1380
-22 c12 -8 20 -19 17 -24 -7 -12 5 -40 18 -40 7 0 7 4 -1 12 -7 7 -12 17 -12
23 1 5 10 -1 20 -14 11 -13 20 -18 20 -13 0 6 -4 14 -10 17 -15 9 -32 45 -21
45 5 0 19 -20 31 -45 42 -87 0 -175 -85 -175 -40 0 -83 30 -90 62 -4 15 -10
28 -14 28 -9 0 -8 52 2 68 5 7 3 12 -4 12 -7 0 2 14 19 30 36 34 75 39 110 14z
m286 -1 c52 -8 79 -50 73 -116 -5 -58 -25 -81 -81 -97 -36 -10 -48 -9 -73 3
-38 20 -57 43 -47 58 4 7 3 9 -4 5 -17 -11 -26 60 -12 95 23 54 57 67 144 52z
m3347 -162 c13 19 2 -88 -18 -166 -20 -80 -38 -112 -74 -131 -17 -8 -29 -11
-25 -6 3 5 -1 15 -9 22 -19 16 -19 29 -1 49 8 9 21 36 29 60 13 41 13 46 -10
86 -18 33 -21 48 -14 66 9 22 10 22 10 3 1 -23 23 -74 32 -74 4 0 7 6 6 13 -1
39 6 90 11 72 l5 -20 8 20 c13 29 0 -78 -18 -145 -7 -30 -23 -68 -35 -84 -14
-20 -18 -31 -10 -34 7 -2 10 -8 7 -13 -4 -5 1 -6 10 -2 11 4 13 8 5 13 -8 5
-6 11 5 20 33 28 56 103 63 210 4 58 8 87 10 66 3 -30 6 -36 13 -25z m-1495
-97 c4 -33 3 -54 -5 -58 -14 -9 -14 -53 0 -58 24 -8 -37 -201 -62 -196 -6 2
-14 -3 -17 -11 -3 -10 0 -11 9 -5 17 9 1 -14 -40 -58 -43 -48 -3 -31 48 20 53
53 86 127 100 222 8 53 9 53 11 15 2 -33 5 -26 16 40 l13 80 -3 -90 c-5 -140
-51 -248 -138 -318 -29 -23 -49 -31 -90 -33 l-53 -3 46 8 c52 10 80 23 99 45
17 22 5 20 -28 -3 -47 -34 -90 -35 -152 -4 -50 26 -100 79 -100 106 0 6 13
-10 29 -35 31 -48 46 -58 92 -58 54 0 140 64 124 91 -5 8 -4 10 4 5 21 -13 59
91 72 194 10 87 9 143 -6 210 -3 14 1 7 10 -14 8 -22 18 -63 21 -92z m-2935
41 c4 3 15 -9 22 -28 14 -33 17 -34 113 -51 55 -10 126 -21 159 -25 77 -10
102 -18 109 -36 13 -35 -4 -45 -78 -45 -69 0 -223 14 -278 26 -23 5 -26 3 -21
-16 5 -18 2 -21 -13 -18 -10 2 -19 9 -19 15 0 7 -6 18 -12 25 -16 15 -17 32
-2 22 8 -4 9 1 4 17 -8 23 -7 23 18 6 26 -17 29 -16 41 17 4 13 2 17 -8 13 -8
-3 -22 1 -33 10 -16 13 -16 14 0 9 9 -3 17 -1 17 4 0 11 -11 13 -34 4 -9 -3
-13 -11 -9 -17 3 -6 1 -7 -5 -3 -6 4 -9 12 -6 19 2 7 -4 17 -15 24 -16 10 -20
9 -25 -2 -3 -8 -13 -15 -22 -15 -13 0 -14 3 -4 15 10 12 10 15 -4 15 -9 0 -16
5 -16 10 0 12 39 7 70 -10 19 -10 22 -9 27 11 4 13 8 18 11 11 2 -7 8 -10 13
-7z m3896 -77 c-53 -14 -74 -24 -65 -29 17 -11 111 -11 124 0 5 5 20 12 33 16
l24 7 -21 -29 c-24 -33 6 -29 -357 -53 -82 -6 -208 -18 -280 -26 -71 -9 -167
-18 -211 -21 l-82 -5 5 25 c4 22 14 27 72 41 98 24 252 43 524 66 133 11 247
22 252 25 6 2 21 3 35 3 14 0 -10 -9 -53 -20z m-1884 -44 c29 -5 37 -11 38
-28 1 -17 2 -17 6 -3 8 32 19 18 15 -21 -3 -25 -9 -39 -20 -41 -10 -1 -176 -5
-369 -7 l-353 -5 0 24 c0 30 26 61 65 75 33 11 553 16 618 6z m1902 -99 c6 -2
-9 -4 -32 -4 -34 -1 -43 -5 -43 -18 0 -10 3 -14 8 -8 11 16 72 12 82 -5 7 -13
-9 -15 -116 -18 -68 -2 -124 0 -124 5 0 5 16 7 36 5 24 -3 34 -1 30 6 -10 17
-86 10 -86 -8 0 -9 -3 -11 -8 -5 -11 15 -56 39 -47 25 5 -8 -4 -9 -30 -4 -27
5 -36 4 -31 -5 4 -7 2 -9 -7 -5 -8 3 -18 1 -22 -5 -4 -8 -12 -8 -27 0 -16 9
-23 8 -29 -2 -8 -12 -10 -12 -18 0 -7 11 -10 11 -15 0 -4 -9 -8 -10 -11 -3 -4
6 -27 9 -63 6 -31 -2 -55 -2 -52 1 7 7 258 35 385 43 55 4 101 8 103 9 3 3
104 -6 117 -10z m-2883 -41 c11 -11 47 -20 95 -25 43 -4 130 -15 193 -24 63
-8 215 -18 338 -20 206 -5 227 -4 268 14 29 13 53 17 71 13 16 -4 67 -6 116
-5 81 3 105 -5 75 -23 -7 -5 -8 -3 -3 6 6 10 4 12 -9 7 -10 -4 -30 -7 -44 -7
-22 0 -24 -2 -12 -10 11 -8 7 -9 -15 -4 -16 4 -32 8 -34 10 -2 2 -11 -1 -21
-6 -9 -5 -34 -10 -54 -12 -20 -1 -36 -6 -36 -10 0 -4 -5 -8 -11 -8 -5 0 -7 5
-4 10 3 6 -1 10 -9 10 -8 0 -18 -4 -21 -10 -3 -5 -13 -10 -21 -10 -8 0 -12 5
-9 10 3 6 1 10 -5 10 -6 0 -13 -7 -16 -15 -4 -8 -10 -15 -15 -15 -4 0 -6 6 -3
13 4 11 -5 12 -43 7 -26 -4 -63 -6 -82 -5 -26 3 -34 -1 -38 -16 -5 -16 -13
-19 -47 -17 -22 1 -44 6 -48 12 -5 7 -8 5 -8 -4 0 -9 -9 -16 -20 -16 -11 0
-20 5 -20 10 0 5 -7 1 -16 -10 -8 -10 -13 -13 -9 -6 4 7 0 12 -9 12 -9 0 -16
-4 -16 -8 0 -13 -83 -4 -91 10 -7 10 -9 9 -9 -4 0 -10 -5 -18 -11 -18 -5 0 -7
-5 -3 -11 3 -6 -8 -3 -25 5 -19 11 -31 12 -31 5 0 -6 -16 -10 -37 -9 -67 3
-85 1 -77 -12 4 -7 3 -8 -4 -4 -7 4 -12 15 -12 24 0 13 -2 14 -8 4 -5 -7 -16
-10 -26 -6 -14 5 -16 2 -11 -22 5 -25 4 -26 -4 -7 -10 21 -11 21 -41 6 -30
-15 -33 -14 -62 7 -16 12 -32 19 -35 16 -4 -3 -1 -6 5 -6 7 0 12 -5 12 -11 0
-6 -7 -9 -14 -6 -11 4 -13 1 -9 -10 5 -12 2 -13 -13 -6 -26 12 -110 8 -107 -6
2 -5 -4 -8 -12 -5 -20 8 81 120 104 116 12 -2 13 -1 3 6 -10 7 -9 18 5 55 19
51 27 56 55 31z"/>
<path d="M968 4541 c-7 -2 -21 -12 -30 -22 -17 -17 -17 -18 3 -24 11 -4 27 -1
36 7 15 11 16 11 10 -6 -6 -14 -4 -16 5 -9 7 6 28 14 46 18 29 6 32 4 33 -17
1 -19 2 -20 6 -4 4 15 7 16 14 5 7 -11 12 -12 29 -1 27 16 35 15 20 -3 -15
-18 1 -20 19 -2 11 10 13 10 7 0 -8 -15 3 -17 24 -3 11 7 18 3 27 -13 10 -18
12 -19 13 -4 0 9 5 17 10 17 6 0 10 5 10 10 0 6 -9 10 -20 10 -15 0 -20 7 -20
25 0 21 -5 25 -30 25 -22 0 -28 -4 -24 -15 4 -8 1 -15 -5 -15 -6 0 -11 6 -11
13 0 10 -19 14 -80 13 -44 -1 -85 -3 -92 -5z"/>
<path d="M4288 2729 c-308 -9 -483 -31 -558 -69 -42 -22 -268 -260 -246 -260
8 0 59 50 113 111 53 61 111 118 128 126 45 24 124 43 175 42 52 -1 45 -5 -23
-14 -26 -3 -45 -10 -42 -15 3 -5 -7 -13 -22 -16 -41 -10 -77 -35 -62 -44 6 -4
50 -8 98 -9 84 -2 237 -28 294 -50 16 -6 27 -18 27 -30 0 -11 3 -28 6 -38 4
-13 3 -14 -3 -5 -7 9 -18 -9 -39 -60 -16 -40 -30 -75 -32 -78 -1 -4 21 -14 50
-24 43 -15 99 -20 293 -25 172 -5 247 -11 265 -21 14 -7 45 -19 70 -26 45 -13
45 -13 -30 -9 -81 5 -84 1 -7 -10 26 -3 47 -10 47 -16 0 -5 -93 -10 -227 -10
-126 -1 -262 -5 -303 -9 -49 -5 -6 -7 125 -5 151 3 179 1 115 -5 -47 -4 -115
-8 -152 -9 -37 -1 -70 -6 -73 -12 -12 -18 1 -21 61 -10 33 6 169 14 304 18
217 7 233 9 135 14 l-110 5 143 2 c93 1 141 -1 137 -8 -4 -6 35 -10 112 -9
l118 1 -105 14 c-58 7 -136 14 -175 15 -38 2 -62 4 -52 7 9 2 17 8 17 14 0 6
10 8 23 4 27 -6 273 -36 302 -36 17 0 17 2 5 10 -9 6 -10 10 -3 10 6 0 14 -4
17 -8 3 -5 41 -9 84 -11 67 -1 81 1 86 15 8 20 -11 253 -24 304 -8 29 -9 25
-5 -23 17 -193 18 -242 4 -224 -15 18 -76 40 -83 29 -2 -4 -7 -24 -11 -45 -4
-20 -12 -37 -17 -37 -5 0 -7 8 -4 18 3 9 28 111 56 227 29 119 58 218 68 229
16 18 16 19 -5 14 -13 -4 -21 -2 -20 5 2 9 -152 52 -160 44 -1 -2 24 -11 57
-20 57 -16 60 -19 55 -45 -6 -35 -108 -456 -111 -461 -2 -2 -56 2 -121 8 -65
6 -143 13 -173 15 -30 3 -91 15 -135 29 -44 13 -133 36 -198 52 -65 15 -116
29 -113 32 4 4 55 -6 321 -67 44 -10 114 -21 155 -25 60 -5 161 -18 224 -28 7
-2 127 452 122 460 -1 1 -43 11 -94 23 -164 36 -400 44 -874 29z m919 -162 c7
-7 -68 -271 -79 -278 -18 -12 -46 -11 -54 2 -3 6 -30 22 -58 35 -59 27 -138
32 -189 10 -32 -13 -36 -12 -113 34 -43 25 -104 59 -134 75 -65 35 -97 63 -78
69 44 14 366 48 563 60 54 3 136 -1 142 -7z"/>
<path d="M5378 2660 c-25 -15 -22 -27 5 -28 31 -1 271 -68 306 -87 65 -33 94
-114 107 -296 l7 -96 -64 -10 -64 -10 109 -4 c95 -3 109 -2 115 13 9 24 1 144
-9 129 -10 -17 -23 69 -14 92 3 10 1 24 -6 32 -6 8 -8 20 -4 26 4 8 3 9 -4 5
-8 -5 -12 5 -12 34 0 85 -39 120 -193 172 -98 33 -248 48 -279 28z"/>
<path d="M7080 2619 c-52 -30 -70 -56 -70 -100 0 -30 -4 -39 -17 -39 -30 0
-65 -51 -59 -84 3 -16 2 -34 -4 -41 -6 -7 -6 -23 -1 -43 7 -22 5 -36 -5 -49
-11 -15 -13 -15 -14 -2 0 8 -6 21 -12 28 -7 6 -13 16 -13 22 0 24 -21 6 -29
-25 -5 -20 -15 -36 -21 -36 -15 0 -45 33 -45 48 0 7 -4 12 -9 12 -13 0 -21
-27 -14 -47 5 -14 3 -15 -7 -6 -7 6 -19 9 -28 6 -10 -4 -13 -2 -8 5 4 6 -3 21
-14 32 -21 21 -22 21 -41 4 -11 -10 -18 -23 -15 -30 8 -20 -18 -24 -138 -24
-71 0 -116 4 -124 12 -8 8 -15 8 -25 0 -8 -7 -17 -9 -20 -5 -4 3 -9 -2 -13
-11 -7 -19 -45 -21 -62 -4 -8 8 -12 9 -12 1 0 -6 -2 -18 -6 -26 -4 -11 7 -16
43 -20 26 -3 97 -20 157 -37 88 -26 110 -29 118 -18 7 10 12 9 24 -7 28 -35
55 -103 61 -155 l6 -50 66 0 c85 0 172 -11 166 -20 -5 -9 79 -20 155 -20 30 0
71 -4 91 -9 20 -5 60 -6 88 -3 l51 5 0 349 c0 323 -1 349 -17 355 -10 4 -35
17 -55 30 -45 28 -81 28 -128 2z m-63 -408 c40 -17 81 -34 92 -40 14 -8 30 -7
62 4 23 8 43 14 45 13 1 -2 -3 -20 -9 -41 -9 -26 -18 -37 -32 -37 -11 0 -27
-4 -35 -10 -9 -6 -17 -5 -21 1 -3 6 -69 13 -154 15 -133 4 -148 3 -161 -13
-13 -17 -13 -17 -14 0 0 10 -8 17 -20 17 -23 0 -28 31 -7 47 6 6 44 20 82 33
39 12 74 26 80 31 13 12 11 13 92 -20z"/>
<path d="M5867 2483 c4 -16 16 -75 27 -133 l21 -105 105 -2 c104 -3 105 -3 83
16 -13 11 -45 22 -71 26 -27 3 -49 12 -49 18 0 7 -8 47 -17 90 -19 85 -41 117
-81 117 -23 0 -25 -3 -18 -27z"/>
<path d="M3286 2335 c-48 -36 -103 -76 -122 -89 l-35 -24 77 -1 c62 -1 75 1
71 13 -6 15 9 16 31 3 7 -5 12 -4 12 2 0 12 85 14 178 5 40 -5 59 -11 55 -18
-10 -16 47 23 96 66 30 25 36 35 22 31 -12 -3 -23 -9 -26 -13 -3 -4 -18 -6
-35 -4 -16 2 -30 0 -30 -4 0 -4 -50 -6 -111 -5 -127 2 -147 12 -101 51 24 20
24 22 4 12 -37 -18 -38 -3 -1 19 19 12 27 21 18 21 -9 0 -55 -29 -103 -65z"/>
<path d="M5440 2298 c-24 -27 -25 -41 -3 -79 9 -15 15 -30 12 -31 -2 -2 -18
-13 -36 -25 -23 -17 -40 -21 -62 -17 -38 8 -42 -12 -5 -26 42 -16 88 -12 107
10 14 17 14 20 2 20 -8 0 -15 4 -15 10 0 5 6 7 14 4 7 -3 16 2 19 10 4 9 17
16 30 16 24 0 67 37 67 58 0 19 -41 30 -75 21 -16 -5 -36 -9 -42 -9 -21 0 -15
26 10 43 12 9 17 16 10 16 -7 1 -21 -9 -33 -21z"/>
<path d="M13 923 c-10 -3 -13 -111 -13 -464 l0 -459 510 1 c336 1 508 4 504
11 -4 5 -16 8 -28 6 -19 -4 -21 -1 -18 24 2 16 0 28 -6 28 -6 0 -9 -9 -7 -20
4 -21 -9 -27 -20 -10 -3 6 -17 10 -31 10 -13 0 -24 4 -24 10 0 10 47 26 65 22
6 -1 11 7 11 17 0 11 -5 17 -13 14 -7 -3 -13 -9 -13 -14 0 -5 -11 -4 -24 1
-13 5 -27 6 -32 2 -4 -4 -4 -1 1 7 6 11 3 13 -14 8 -14 -3 -21 -1 -18 6 2 7
10 12 18 12 26 0 32 25 9 45 -24 21 -32 70 -11 78 8 3 11 0 7 -6 -4 -7 6 -9
31 -5 49 7 55 13 15 13 -18 0 -32 4 -32 10 0 6 -9 6 -25 0 -26 -10 -28 -8 -27
25 1 17 0 17 -4 2 -3 -9 -10 -15 -15 -11 -5 3 -7 10 -4 15 4 5 -13 9 -38 9
-31 0 -47 5 -51 15 -3 10 1 18 12 21 9 3 24 9 34 14 11 6 18 5 22 -5 3 -9 -1
-15 -9 -15 -8 0 -15 -4 -15 -10 0 -12 0 -12 40 2 31 10 32 12 12 19 -12 5 -22
16 -22 26 0 15 2 15 9 4 8 -12 12 -12 26 3 13 13 20 14 31 5 10 -8 14 -8 14 0
0 16 30 13 36 -4 8 -19 20 -19 27 -1 4 10 1 13 -7 10 -8 -3 -17 -1 -21 5 -3 6
-15 11 -26 11 -10 0 -19 5 -19 12 0 6 -8 4 -19 -6 -11 -10 -25 -15 -30 -11
-18 10 -12 23 12 28 18 4 17 5 -7 6 -23 1 -27 -2 -23 -18 3 -12 -1 -22 -10
-25 -25 -10 -33 -7 -33 12 -1 15 -2 15 -11 -2 -9 -14 -8 -20 2 -27 17 -10 7
-21 -12 -14 -8 3 -15 16 -15 30 -1 14 2 23 6 20 5 -3 11 4 15 15 3 11 11 20
18 20 6 0 3 6 -7 13 -18 13 -30 67 -15 67 5 0 9 -4 9 -10 0 -11 39 -13 64 -4
9 3 13 11 10 16 -4 6 -10 5 -15 -3 -6 -10 -9 -8 -9 9 0 12 -4 22 -10 22 -5 0
-10 5 -10 11 0 5 8 9 18 8 58 -5 51 16 -9 24 -22 3 -49 13 -60 23 -15 13 -22
15 -31 6 -9 -9 -8 -12 6 -12 16 0 17 -2 5 -16 -12 -15 -10 -16 21 -10 26 5 31
4 20 -3 -13 -9 -12 -11 3 -11 10 0 16 -4 13 -9 -4 -5 0 -12 6 -14 10 -4 10 -6
0 -6 -7 -1 -31 -10 -52 -20 -22 -11 -40 -16 -40 -11 0 4 7 11 16 14 8 3 13 10
10 15 -9 14 20 21 33 8 8 -8 11 -8 11 0 0 19 -32 24 -50 8 -12 -10 -19 -12
-22 -5 -5 16 -68 -8 -68 -26 0 -8 6 -14 13 -13 6 1 21 1 32 0 17 -1 18 -3 5
-11 -13 -9 -13 -12 3 -21 9 -6 15 -14 12 -18 -2 -5 4 -16 15 -26 15 -14 17
-21 8 -26 -18 -11 -11 -101 10 -118 15 -12 14 -13 -11 -8 -19 3 -31 -1 -37
-12 -8 -13 -9 -14 -10 -1 0 13 -1 13 -10 0 -6 -10 -10 -11 -10 -2 0 6 -7 12
-16 12 -8 0 -12 5 -9 10 4 6 11 7 17 4 15 -10 58 17 58 37 0 9 -7 19 -15 23
-8 3 -15 1 -15 -4 0 -6 5 -10 10 -10 7 0 7 -7 0 -20 -6 -12 -16 -18 -23 -13
-8 5 -8 8 1 11 21 7 13 20 -10 16 -21 -4 -22 -4 -3 5 11 5 16 10 10 10 -5 1
-3 6 5 11 13 8 13 10 -2 10 -9 0 -18 -6 -21 -12 -2 -7 -7 -10 -11 -6 -4 3 -3
16 4 27 9 17 8 21 -5 21 -9 0 -14 -4 -11 -9 8 -12 -29 -20 -45 -10 -11 7 -11
9 1 9 21 0 49 35 41 49 -5 7 -12 2 -19 -14 -7 -15 -17 -23 -23 -19 -6 3 -15 0
-20 -7 -4 -7 -11 -10 -16 -6 -4 5 -1 12 7 17 11 7 11 11 1 24 -11 13 -11 16 2
16 8 0 18 -7 21 -16 6 -16 26 -11 26 7 0 6 -5 7 -10 4 -5 -3 -10 -1 -10 4 0 6
18 11 39 11 44 0 67 28 31 37 -11 3 -20 13 -20 23 0 10 -3 20 -8 23 -4 2 -2 3
5 1 20 -5 23 9 5 22 -15 12 -15 12 7 7 14 -4 26 -1 32 8 8 12 10 12 18 0 7
-11 12 -9 22 10 11 22 11 23 -4 10 -10 -7 -17 -10 -17 -6 0 4 8 14 18 21 15
12 15 15 2 24 -13 9 -13 12 4 25 10 8 23 12 27 9 5 -3 9 -1 9 5 0 6 -28 9 -67
8 -40 -1 -73 2 -80 9 -9 9 -1 11 32 9 24 -2 49 -6 55 -10 5 -3 10 1 10 9 0 9
-11 16 -27 18 -16 2 -28 8 -28 15 0 21 -14 25 -44 15 -31 -11 -45 1 -15 12 8
3 13 10 9 15 -3 5 0 13 6 17 7 4 9 3 6 -3 -4 -6 2 -13 14 -16 16 -4 18 -3 8 9
-14 17 -5 18 21 2 19 -12 43 -3 25 10 -6 4 -11 20 -13 36 -3 25 0 28 17 23 12
-3 24 -1 27 4 3 5 -19 10 -48 11 -88 3 -111 4 -163 12 -27 4 -79 8 -115 11
-248 14 -306 18 -310 20 -3 1 -11 0 -17 -2z"/>
<path d="M6222 634 c-6 -7 -13 -24 -15 -36 -2 -18 2 -23 20 -21 16 2 21 -2 17
-12 -4 -9 -15 -13 -30 -11 -13 3 -24 0 -24 -6 0 -5 -6 -8 -13 -5 -7 3 -13 -3
-13 -13 0 -14 4 -16 18 -9 10 5 19 5 22 0 6 -9 -26 -21 -57 -21 -11 0 -15 4
-11 12 5 7 3 8 -6 3 -10 -6 -9 -11 4 -21 10 -7 15 -17 11 -23 -3 -6 -2 -11 4
-11 5 0 13 5 16 10 8 13 25 13 25 -1 0 -5 -4 -7 -10 -4 -5 3 -10 2 -10 -4 0
-5 5 -13 10 -16 6 -3 10 -1 10 4 0 6 7 11 15 11 21 0 19 -13 -5 -28 -20 -12
-19 -32 1 -32 6 0 7 5 3 11 -3 6 0 15 7 20 18 11 31 -11 17 -29 -16 -18 3 -35
33 -29 22 4 22 4 -3 6 -28 1 -37 14 -18 26 6 3 10 1 10 -4 0 -6 5 -11 11 -11
6 0 1 12 -10 26 -17 22 -19 30 -9 43 7 9 13 17 14 19 0 1 9 -8 20 -20 19 -21
19 -21 -3 -16 -27 7 -29 2 -9 -18 11 -11 16 -11 20 -1 5 9 7 9 12 0 3 -7 12
-13 20 -13 9 0 12 5 9 10 -3 6 -2 10 4 10 17 0 20 -15 5 -35 -9 -12 -14 -14
-14 -5 0 7 -3 11 -6 7 -3 -3 -1 -14 5 -24 6 -10 11 -13 11 -6 0 8 7 10 18 6
15 -6 15 -5 4 10 -12 14 -11 16 10 15 13 -1 30 -6 38 -12 13 -9 13 -8 3 5 -10
12 -10 18 -1 27 7 7 8 12 3 12 -6 0 -3 5 5 11 13 9 13 10 0 6 -29 -8 -51 12
-45 43 4 21 1 30 -12 33 -15 4 -15 5 2 7 l20 1 -20 9 c-18 8 -18 9 -2 9 17 1
17 2 3 17 -9 8 -20 13 -24 10 -14 -9 -1 -65 17 -69 13 -4 12 -5 -3 -6 -10 0
-25 7 -32 17 -11 14 -15 15 -26 3 -11 -12 -10 -13 6 -7 14 5 17 2 12 -9 -5
-14 4 -19 32 -16 17 3 15 -16 -3 -23 -8 -3 -15 -1 -15 4 0 6 -5 10 -11 10 -8
0 -9 -4 0 -13 14 -18 2 -30 -15 -16 -7 6 -10 18 -7 26 4 10 2 14 -4 10 -6 -4
-18 -1 -25 7 -13 12 -16 11 -26 -5 -7 -10 -17 -19 -22 -19 -16 0 -11 27 6 34
14 5 14 9 3 23 -13 15 -11 16 11 10 23 -6 25 -3 27 29 1 19 -2 32 -7 29 -4 -3
-11 2 -14 11 -3 8 -2 12 4 9 12 -7 13 5 2 21 -5 9 -10 8 -20 -2z"/>
</g>
</svg>
